<mxfile host="Electron" modified="2024-06-08T02:13:30.455Z" agent="Mozilla/5.0 (Windows NT 10.0; Win64; x64) AppleWebKit/537.36 (KHTML, like Gecko) draw.io/24.4.8 Chrome/124.0.6367.207 Electron/30.0.6 Safari/537.36" etag="1WSRcYmr0ytuC4CkX-2Q" version="24.4.8" type="device">
  <diagram name="Page-1" id="KZN-zyBD-0XipZeYQRDT">
    <mxGraphModel dx="808" dy="467" grid="1" gridSize="10" guides="1" tooltips="1" connect="1" arrows="1" fold="1" page="1" pageScale="1" pageWidth="500" pageHeight="200" math="0" shadow="0">
      <root>
        <mxCell id="0" />
        <mxCell id="1" parent="0" />
        <mxCell id="lOCSN8-xL9tDfDZF2J6v-251" value="" style="group" vertex="1" connectable="0" parent="1">
          <mxGeometry x="9" y="78" width="482.6" height="44.45" as="geometry" />
        </mxCell>
        <mxCell id="9eh16xiQdjSHdPkHuFP6-378" value="" style="rounded=0;whiteSpace=wrap;html=1;strokeColor=#aaaaaa;fillColor=#bfbfbf;strokeWidth=1;container=0;part=1;movable=1;resizable=1;rotatable=1;deletable=1;editable=1;locked=0;connectable=1;" parent="lOCSN8-xL9tDfDZF2J6v-251" vertex="1">
          <mxGeometry width="482.6" height="44.45" as="geometry" />
        </mxCell>
        <mxCell id="9eh16xiQdjSHdPkHuFP6-379" value="" style="rounded=0;whiteSpace=wrap;html=1;strokeColor=#aaaaaa;fillColor=#222222;strokeWidth=1;movable=1;resizable=1;rotatable=1;deletable=1;editable=1;locked=0;connectable=1;container=0;" parent="lOCSN8-xL9tDfDZF2J6v-251" vertex="1">
          <mxGeometry x="18" width="446.6" height="44.45" as="geometry" />
        </mxCell>
        <mxCell id="jP2WbbBxQBNUkDRbYnSl-231" value="" style="rounded=0;whiteSpace=wrap;html=1;fillColor=#000000;fontColor=#ffffff;strokeColor=none;container=0;" parent="lOCSN8-xL9tDfDZF2J6v-251" vertex="1">
          <mxGeometry x="7" y="19.224999999999994" width="4" height="6" as="geometry" />
        </mxCell>
        <mxCell id="jP2WbbBxQBNUkDRbYnSl-232" value="" style="ellipse;whiteSpace=wrap;html=1;aspect=fixed;strokeColor=none;fillColor=#000000;container=0;" parent="lOCSN8-xL9tDfDZF2J6v-251" vertex="1">
          <mxGeometry x="8" y="19.224999999999994" width="6" height="6" as="geometry" />
        </mxCell>
        <mxCell id="jP2WbbBxQBNUkDRbYnSl-233" value="" style="ellipse;whiteSpace=wrap;html=1;aspect=fixed;strokeColor=none;fillColor=#000000;container=0;" parent="lOCSN8-xL9tDfDZF2J6v-251" vertex="1">
          <mxGeometry x="4" y="19.224999999999994" width="6" height="6" as="geometry" />
        </mxCell>
        <mxCell id="wEfOMtyTKLQo5fzBktWI-2" value="" style="rounded=0;whiteSpace=wrap;html=1;fillColor=#000000;fontColor=#ffffff;strokeColor=none;container=0;" parent="lOCSN8-xL9tDfDZF2J6v-251" vertex="1">
          <mxGeometry x="471.59625000000017" y="19.224999999999994" width="4" height="6" as="geometry" />
        </mxCell>
        <mxCell id="wEfOMtyTKLQo5fzBktWI-3" value="" style="ellipse;whiteSpace=wrap;html=1;aspect=fixed;strokeColor=none;fillColor=#000000;container=0;" parent="lOCSN8-xL9tDfDZF2J6v-251" vertex="1">
          <mxGeometry x="472.59625000000017" y="19.224999999999994" width="6" height="6" as="geometry" />
        </mxCell>
        <mxCell id="wEfOMtyTKLQo5fzBktWI-4" value="" style="ellipse;whiteSpace=wrap;html=1;aspect=fixed;strokeColor=none;fillColor=#000000;container=0;" parent="lOCSN8-xL9tDfDZF2J6v-251" vertex="1">
          <mxGeometry x="468.59625000000017" y="19.224999999999994" width="6" height="6" as="geometry" />
        </mxCell>
        <mxCell id="jP2WbbBxQBNUkDRbYnSl-206" value="" style="rounded=0;whiteSpace=wrap;html=1;strokeColor=#aaaaaa;fillColor=#bfbfbf;strokeWidth=1;movable=1;resizable=1;rotatable=1;deletable=1;editable=1;locked=0;connectable=1;container=0;" parent="lOCSN8-xL9tDfDZF2J6v-251" vertex="1">
          <mxGeometry x="7.99625" width="10" height="44.45" as="geometry" />
        </mxCell>
        <mxCell id="wEfOMtyTKLQo5fzBktWI-5" value="" style="rounded=0;whiteSpace=wrap;html=1;strokeColor=#aaaaaa;fillColor=#bfbfbf;strokeWidth=1;movable=1;resizable=1;rotatable=1;deletable=1;editable=1;locked=0;connectable=1;container=0;" parent="lOCSN8-xL9tDfDZF2J6v-251" vertex="1">
          <mxGeometry x="464.60000000000014" width="10" height="44.45" as="geometry" />
        </mxCell>
        <mxCell id="s0dWRtyi07ZF37cMcm2--266" value="" style="rounded=0;whiteSpace=wrap;html=1;strokeColor=#111111;fillColor=#222222;strokeWidth=0.2;movable=1;resizable=1;rotatable=1;deletable=1;editable=1;locked=0;connectable=1;container=0;align=center;verticalAlign=middle;fontFamily=Helvetica;fontSize=12;fontColor=default;arcSize=9;gradientColor=#333333;gradientDirection=north;" parent="lOCSN8-xL9tDfDZF2J6v-251" vertex="1">
          <mxGeometry x="207.3" y="4.45" width="32" height="8" as="geometry" />
        </mxCell>
        <mxCell id="s0dWRtyi07ZF37cMcm2--64" value="" style="rounded=0;whiteSpace=wrap;html=1;strokeColor=none;fillColor=#000000;strokeWidth=1;movable=1;resizable=1;rotatable=1;deletable=1;editable=1;locked=0;connectable=1;container=0;" parent="lOCSN8-xL9tDfDZF2J6v-251" vertex="1">
          <mxGeometry x="18.5" y="14.450000000000003" width="445.6" height="29.5" as="geometry" />
        </mxCell>
        <mxCell id="4ou6pQqf3mK2EiXASReZ-238" value="" style="rounded=1;whiteSpace=wrap;html=1;strokeColor=none;fillColor=#222222;strokeWidth=0.2;movable=1;resizable=1;rotatable=1;deletable=1;editable=1;locked=0;connectable=1;container=0;align=center;verticalAlign=middle;fontFamily=Helvetica;fontSize=12;fontColor=default;gradientColor=#111111;gradientDirection=radial;arcSize=10;" parent="lOCSN8-xL9tDfDZF2J6v-251" vertex="1">
          <mxGeometry x="396.3" y="1.5" width="66" height="12" as="geometry" />
        </mxCell>
        <mxCell id="4ou6pQqf3mK2EiXASReZ-240" value="" style="ellipse;whiteSpace=wrap;html=1;strokeColor=#000000;fillColor=#60a917;fontColor=#ffffff;movable=1;resizable=1;rotatable=1;deletable=1;editable=1;locked=0;connectable=1;container=0;strokeWidth=0.1;" parent="lOCSN8-xL9tDfDZF2J6v-251" vertex="1">
          <mxGeometry x="410" y="8" width="4" height="4" as="geometry" />
        </mxCell>
        <mxCell id="4ou6pQqf3mK2EiXASReZ-243" value="" style="strokeWidth=0.1;html=1;shape=mxgraph.flowchart.database;whiteSpace=wrap;strokeColor=default;fillColor=none;movable=1;resizable=1;rotatable=1;deletable=1;editable=1;locked=0;connectable=1;container=0;" parent="lOCSN8-xL9tDfDZF2J6v-251" vertex="1">
          <mxGeometry x="428" y="3" width="4" height="4" as="geometry" />
        </mxCell>
        <mxCell id="4ou6pQqf3mK2EiXASReZ-244" value="" style="sketch=0;pointerEvents=1;shadow=0;dashed=0;html=1;strokeColor=none;fillColor=#FFFFFF;labelPosition=center;verticalLabelPosition=bottom;verticalAlign=top;align=center;outlineConnect=0;shape=mxgraph.vvd.infrastructure;movable=1;resizable=1;rotatable=1;deletable=1;editable=1;locked=0;connectable=1;container=0;" parent="lOCSN8-xL9tDfDZF2J6v-251" vertex="1">
          <mxGeometry x="416" y="3" width="4" height="4" as="geometry" />
        </mxCell>
        <mxCell id="4ou6pQqf3mK2EiXASReZ-245" value="" style="triangle;whiteSpace=wrap;html=1;rotation=-90;fillColor=none;strokeWidth=0.1;movable=1;resizable=1;rotatable=1;deletable=1;editable=1;locked=0;connectable=1;container=0;" parent="lOCSN8-xL9tDfDZF2J6v-251" vertex="1">
          <mxGeometry x="410" y="3" width="4" height="4" as="geometry" />
        </mxCell>
        <mxCell id="4ou6pQqf3mK2EiXASReZ-246" value="" style="sketch=0;html=1;strokeColor=default;shadow=0;fillColor=none;verticalAlign=top;labelPosition=center;verticalLabelPosition=bottom;shape=mxgraph.gcp2.a7_power;gradientColor=none;strokeWidth=0.1;movable=1;resizable=1;rotatable=1;deletable=1;editable=1;locked=0;connectable=1;container=0;" parent="lOCSN8-xL9tDfDZF2J6v-251" vertex="1">
          <mxGeometry x="434" y="3" width="4" height="4" as="geometry" />
        </mxCell>
        <mxCell id="4ou6pQqf3mK2EiXASReZ-247" value="" style="ellipse;whiteSpace=wrap;html=1;strokeColor=#000000;fillColor=#60a917;fontColor=#ffffff;movable=1;resizable=1;rotatable=1;deletable=1;editable=1;locked=0;connectable=1;container=0;strokeWidth=0.1;" parent="lOCSN8-xL9tDfDZF2J6v-251" vertex="1">
          <mxGeometry x="416" y="8" width="4" height="4" as="geometry" />
        </mxCell>
        <mxCell id="4ou6pQqf3mK2EiXASReZ-248" value="" style="ellipse;whiteSpace=wrap;html=1;strokeColor=#000000;fillColor=#60a917;fontColor=#ffffff;movable=1;resizable=1;rotatable=1;deletable=1;editable=1;locked=0;connectable=1;container=0;strokeWidth=0.1;" parent="lOCSN8-xL9tDfDZF2J6v-251" vertex="1">
          <mxGeometry x="422" y="8" width="4" height="4" as="geometry" />
        </mxCell>
        <mxCell id="4ou6pQqf3mK2EiXASReZ-249" value="" style="ellipse;whiteSpace=wrap;html=1;strokeColor=#000000;fillColor=#60a917;fontColor=#ffffff;movable=1;resizable=1;rotatable=1;deletable=1;editable=1;locked=0;connectable=1;container=0;strokeWidth=0.1;" parent="lOCSN8-xL9tDfDZF2J6v-251" vertex="1">
          <mxGeometry x="428" y="8" width="4" height="4" as="geometry" />
        </mxCell>
        <mxCell id="4ou6pQqf3mK2EiXASReZ-250" value="" style="ellipse;whiteSpace=wrap;html=1;strokeColor=#000000;fillColor=#60a917;fontColor=#ffffff;movable=1;resizable=1;rotatable=1;deletable=1;editable=1;locked=0;connectable=1;container=0;strokeWidth=0.1;" parent="lOCSN8-xL9tDfDZF2J6v-251" vertex="1">
          <mxGeometry x="434" y="8" width="4" height="4" as="geometry" />
        </mxCell>
        <mxCell id="4ou6pQqf3mK2EiXASReZ-251" value="" style="sketch=0;pointerEvents=1;shadow=0;dashed=0;html=1;strokeColor=none;fillColor=#FFFFFF;labelPosition=center;verticalLabelPosition=bottom;verticalAlign=top;align=center;outlineConnect=0;shape=mxgraph.vvd.infrastructure;movable=1;resizable=1;rotatable=1;deletable=1;editable=1;locked=0;connectable=1;container=0;" parent="lOCSN8-xL9tDfDZF2J6v-251" vertex="1">
          <mxGeometry x="422" y="3" width="4" height="4" as="geometry" />
        </mxCell>
        <mxCell id="4ou6pQqf3mK2EiXASReZ-262" value="" style="group;rounded=1;arcSize=50;strokeColor=#111111;strokeWidth=2;" parent="lOCSN8-xL9tDfDZF2J6v-251" vertex="1" connectable="0">
          <mxGeometry x="452" y="4.000434782608693" width="7" height="7" as="geometry" />
        </mxCell>
        <mxCell id="4ou6pQqf3mK2EiXASReZ-263" value="" style="ellipse;whiteSpace=wrap;html=1;strokeColor=#000000;fillColor=#6F0000;fontColor=#ffffff;movable=1;resizable=1;rotatable=1;deletable=1;editable=1;locked=0;connectable=1;container=0;strokeWidth=0.1;" parent="4ou6pQqf3mK2EiXASReZ-262" vertex="1">
          <mxGeometry width="7" height="7" as="geometry" />
        </mxCell>
        <mxCell id="4ou6pQqf3mK2EiXASReZ-264" value="" style="sketch=0;html=1;strokeColor=#470000;shadow=0;fillColor=none;verticalAlign=top;labelPosition=center;verticalLabelPosition=bottom;shape=mxgraph.gcp2.a7_power;gradientColor=none;strokeWidth=0.1;movable=1;resizable=1;rotatable=1;deletable=1;editable=1;locked=0;connectable=1;container=0;" parent="4ou6pQqf3mK2EiXASReZ-262" vertex="1">
          <mxGeometry x="1" y="0.9495652173913065" width="5" height="5" as="geometry" />
        </mxCell>
        <mxCell id="4ou6pQqf3mK2EiXASReZ-265" value="" style="group" parent="lOCSN8-xL9tDfDZF2J6v-251" vertex="1" connectable="0">
          <mxGeometry x="445" y="5.000434782608693" width="4" height="4" as="geometry" />
        </mxCell>
        <mxCell id="4ou6pQqf3mK2EiXASReZ-266" value="" style="group;rounded=1;arcSize=50;strokeColor=#111111;strokeWidth=2;container=0;" parent="4ou6pQqf3mK2EiXASReZ-265" vertex="1" connectable="0">
          <mxGeometry width="4" height="4" as="geometry" />
        </mxCell>
        <mxCell id="4ou6pQqf3mK2EiXASReZ-267" value="" style="ellipse;whiteSpace=wrap;html=1;strokeColor=#000000;fillColor=#6F0000;fontColor=#ffffff;movable=1;resizable=1;rotatable=1;deletable=1;editable=1;locked=0;connectable=1;container=0;strokeWidth=0.1;" parent="4ou6pQqf3mK2EiXASReZ-265" vertex="1">
          <mxGeometry width="4" height="4" as="geometry" />
        </mxCell>
        <mxCell id="4ou6pQqf3mK2EiXASReZ-268" value="" style="group" parent="lOCSN8-xL9tDfDZF2J6v-251" vertex="1" connectable="0">
          <mxGeometry x="403" y="8.500434782608693" width="3" height="3" as="geometry" />
        </mxCell>
        <mxCell id="4ou6pQqf3mK2EiXASReZ-269" value="" style="group;rounded=1;arcSize=50;strokeColor=#111111;strokeWidth=2;container=0;" parent="4ou6pQqf3mK2EiXASReZ-268" vertex="1" connectable="0">
          <mxGeometry width="3" height="3" as="geometry" />
        </mxCell>
        <mxCell id="4ou6pQqf3mK2EiXASReZ-270" value="" style="ellipse;whiteSpace=wrap;html=1;strokeColor=#000000;fillColor=#010101;fontColor=#ffffff;movable=1;resizable=1;rotatable=1;deletable=1;editable=1;locked=0;connectable=1;container=0;strokeWidth=0.1;" parent="4ou6pQqf3mK2EiXASReZ-268" vertex="1">
          <mxGeometry width="3" height="3" as="geometry" />
        </mxCell>
        <mxCell id="4ou6pQqf3mK2EiXASReZ-271" value="UID" style="text;html=1;align=center;verticalAlign=middle;whiteSpace=wrap;rounded=0;fontSize=2;" parent="lOCSN8-xL9tDfDZF2J6v-251" vertex="1">
          <mxGeometry x="400" y="3.5" width="9" height="4" as="geometry" />
        </mxCell>
        <mxCell id="4ou6pQqf3mK2EiXASReZ-272" value="RESET" style="text;html=1;align=center;verticalAlign=middle;whiteSpace=wrap;rounded=0;fontSize=2;" parent="lOCSN8-xL9tDfDZF2J6v-251" vertex="1">
          <mxGeometry x="442.5" y="9" width="9" height="4" as="geometry" />
        </mxCell>
        <mxCell id="lOCSN8-xL9tDfDZF2J6v-213" value="" style="group" vertex="1" connectable="0" parent="lOCSN8-xL9tDfDZF2J6v-251">
          <mxGeometry x="20.3" y="16.200000000000003" width="442" height="26" as="geometry" />
        </mxCell>
        <mxCell id="lOCSN8-xL9tDfDZF2J6v-71" value="" style="group" vertex="1" connectable="0" parent="lOCSN8-xL9tDfDZF2J6v-213">
          <mxGeometry width="109" height="26" as="geometry" />
        </mxCell>
        <mxCell id="4ou6pQqf3mK2EiXASReZ-9" value="" style="rounded=0;whiteSpace=wrap;html=1;strokeColor=none;fillColor=#222222;strokeWidth=1;movable=1;resizable=1;rotatable=1;deletable=1;editable=1;locked=0;connectable=1;container=0;" parent="lOCSN8-xL9tDfDZF2J6v-71" vertex="1">
          <mxGeometry width="109" height="26" as="geometry" />
        </mxCell>
        <mxCell id="lOCSN8-xL9tDfDZF2J6v-2" value="" style="rounded=0;whiteSpace=wrap;html=1;strokeColor=none;fillColor=#333333;strokeWidth=1;movable=1;resizable=1;rotatable=1;deletable=1;editable=1;locked=0;connectable=1;container=0;gradientColor=#222222;gradientDirection=east;" vertex="1" parent="lOCSN8-xL9tDfDZF2J6v-71">
          <mxGeometry x="30" width="59" height="26" as="geometry" />
        </mxCell>
        <mxCell id="lOCSN8-xL9tDfDZF2J6v-3" value="" style="rounded=0;whiteSpace=wrap;html=1;strokeColor=none;fillColor=#333333;strokeWidth=1;movable=1;resizable=1;rotatable=1;deletable=1;editable=1;locked=0;connectable=1;container=0;gradientColor=#222222;gradientDirection=west;" vertex="1" parent="lOCSN8-xL9tDfDZF2J6v-71">
          <mxGeometry width="30" height="26" as="geometry" />
        </mxCell>
        <mxCell id="lOCSN8-xL9tDfDZF2J6v-5" value="" style="rounded=0;whiteSpace=wrap;html=1;strokeColor=none;fillColor=#333333;strokeWidth=1;movable=1;resizable=1;rotatable=1;deletable=1;editable=1;locked=0;connectable=1;container=0;gradientColor=#222222;gradientDirection=west;" vertex="1" parent="lOCSN8-xL9tDfDZF2J6v-71">
          <mxGeometry x="89" width="20" height="26" as="geometry" />
        </mxCell>
        <mxCell id="lOCSN8-xL9tDfDZF2J6v-13" value="" style="rounded=1;whiteSpace=wrap;html=1;strokeColor=none;fillColor=#111111;strokeWidth=0.1;movable=1;resizable=1;rotatable=1;deletable=1;editable=1;locked=0;connectable=1;container=0;gradientColor=none;gradientDirection=west;arcSize=32;" vertex="1" parent="lOCSN8-xL9tDfDZF2J6v-71">
          <mxGeometry x="2" y="3" width="5.5" height="5.5" as="geometry" />
        </mxCell>
        <mxCell id="lOCSN8-xL9tDfDZF2J6v-15" value="" style="rounded=1;whiteSpace=wrap;html=1;strokeColor=none;fillColor=#111111;strokeWidth=0.1;movable=1;resizable=1;rotatable=1;deletable=1;editable=1;locked=0;connectable=1;container=0;gradientColor=none;gradientDirection=west;arcSize=32;" vertex="1" parent="lOCSN8-xL9tDfDZF2J6v-71">
          <mxGeometry x="8.5" y="3" width="5.5" height="5.5" as="geometry" />
        </mxCell>
        <mxCell id="lOCSN8-xL9tDfDZF2J6v-16" value="" style="rounded=1;whiteSpace=wrap;html=1;strokeColor=none;fillColor=#111111;strokeWidth=0.1;movable=1;resizable=1;rotatable=1;deletable=1;editable=1;locked=0;connectable=1;container=0;gradientColor=none;gradientDirection=west;arcSize=32;" vertex="1" parent="lOCSN8-xL9tDfDZF2J6v-71">
          <mxGeometry x="15" y="3" width="5.5" height="5.5" as="geometry" />
        </mxCell>
        <mxCell id="lOCSN8-xL9tDfDZF2J6v-17" value="" style="rounded=1;whiteSpace=wrap;html=1;strokeColor=none;fillColor=#111111;strokeWidth=0.1;movable=1;resizable=1;rotatable=1;deletable=1;editable=1;locked=0;connectable=1;container=0;gradientColor=none;gradientDirection=west;arcSize=32;" vertex="1" parent="lOCSN8-xL9tDfDZF2J6v-71">
          <mxGeometry x="21.5" y="3" width="5.5" height="5.5" as="geometry" />
        </mxCell>
        <mxCell id="lOCSN8-xL9tDfDZF2J6v-18" value="" style="rounded=1;whiteSpace=wrap;html=1;strokeColor=none;fillColor=#111111;strokeWidth=0.1;movable=1;resizable=1;rotatable=1;deletable=1;editable=1;locked=0;connectable=1;container=0;gradientColor=none;gradientDirection=west;arcSize=32;" vertex="1" parent="lOCSN8-xL9tDfDZF2J6v-71">
          <mxGeometry x="28" y="3" width="5.5" height="5.5" as="geometry" />
        </mxCell>
        <mxCell id="lOCSN8-xL9tDfDZF2J6v-19" value="" style="rounded=1;whiteSpace=wrap;html=1;strokeColor=none;fillColor=#111111;strokeWidth=0.1;movable=1;resizable=1;rotatable=1;deletable=1;editable=1;locked=0;connectable=1;container=0;gradientColor=none;gradientDirection=west;arcSize=32;" vertex="1" parent="lOCSN8-xL9tDfDZF2J6v-71">
          <mxGeometry x="34.5" y="3" width="5.5" height="5.5" as="geometry" />
        </mxCell>
        <mxCell id="lOCSN8-xL9tDfDZF2J6v-20" value="" style="rounded=1;whiteSpace=wrap;html=1;strokeColor=none;fillColor=#111111;strokeWidth=0.1;movable=1;resizable=1;rotatable=1;deletable=1;editable=1;locked=0;connectable=1;container=0;gradientColor=none;gradientDirection=west;arcSize=32;" vertex="1" parent="lOCSN8-xL9tDfDZF2J6v-71">
          <mxGeometry x="41" y="3" width="5.5" height="5.5" as="geometry" />
        </mxCell>
        <mxCell id="lOCSN8-xL9tDfDZF2J6v-21" value="" style="rounded=1;whiteSpace=wrap;html=1;strokeColor=none;fillColor=#111111;strokeWidth=0.1;movable=1;resizable=1;rotatable=1;deletable=1;editable=1;locked=0;connectable=1;container=0;gradientColor=none;gradientDirection=west;arcSize=32;" vertex="1" parent="lOCSN8-xL9tDfDZF2J6v-71">
          <mxGeometry x="47.5" y="3" width="5.5" height="5.5" as="geometry" />
        </mxCell>
        <mxCell id="lOCSN8-xL9tDfDZF2J6v-22" value="" style="rounded=1;whiteSpace=wrap;html=1;strokeColor=none;fillColor=#111111;strokeWidth=0.1;movable=1;resizable=1;rotatable=1;deletable=1;editable=1;locked=0;connectable=1;container=0;gradientColor=none;gradientDirection=west;arcSize=32;" vertex="1" parent="lOCSN8-xL9tDfDZF2J6v-71">
          <mxGeometry x="54" y="3" width="5.5" height="5.5" as="geometry" />
        </mxCell>
        <mxCell id="lOCSN8-xL9tDfDZF2J6v-23" value="" style="rounded=1;whiteSpace=wrap;html=1;strokeColor=none;fillColor=#111111;strokeWidth=0.1;movable=1;resizable=1;rotatable=1;deletable=1;editable=1;locked=0;connectable=1;container=0;gradientColor=none;gradientDirection=west;arcSize=32;" vertex="1" parent="lOCSN8-xL9tDfDZF2J6v-71">
          <mxGeometry x="60.5" y="3" width="5.5" height="5.5" as="geometry" />
        </mxCell>
        <mxCell id="lOCSN8-xL9tDfDZF2J6v-24" value="" style="rounded=1;whiteSpace=wrap;html=1;strokeColor=none;fillColor=#111111;strokeWidth=0.1;movable=1;resizable=1;rotatable=1;deletable=1;editable=1;locked=0;connectable=1;container=0;gradientColor=none;gradientDirection=west;arcSize=32;" vertex="1" parent="lOCSN8-xL9tDfDZF2J6v-71">
          <mxGeometry x="67" y="3" width="5.5" height="5.5" as="geometry" />
        </mxCell>
        <mxCell id="lOCSN8-xL9tDfDZF2J6v-25" value="" style="rounded=1;whiteSpace=wrap;html=1;strokeColor=none;fillColor=#111111;strokeWidth=0.1;movable=1;resizable=1;rotatable=1;deletable=1;editable=1;locked=0;connectable=1;container=0;gradientColor=none;gradientDirection=west;arcSize=32;" vertex="1" parent="lOCSN8-xL9tDfDZF2J6v-71">
          <mxGeometry x="73.5" y="3" width="5.5" height="5.5" as="geometry" />
        </mxCell>
        <mxCell id="lOCSN8-xL9tDfDZF2J6v-26" value="" style="rounded=1;whiteSpace=wrap;html=1;strokeColor=none;fillColor=#111111;strokeWidth=0.1;movable=1;resizable=1;rotatable=1;deletable=1;editable=1;locked=0;connectable=1;container=0;gradientColor=none;gradientDirection=west;arcSize=32;" vertex="1" parent="lOCSN8-xL9tDfDZF2J6v-71">
          <mxGeometry x="80" y="3" width="5.5" height="5.5" as="geometry" />
        </mxCell>
        <mxCell id="lOCSN8-xL9tDfDZF2J6v-27" value="" style="rounded=1;whiteSpace=wrap;html=1;strokeColor=none;fillColor=#111111;strokeWidth=0.1;movable=1;resizable=1;rotatable=1;deletable=1;editable=1;locked=0;connectable=1;container=0;gradientColor=none;gradientDirection=west;arcSize=32;" vertex="1" parent="lOCSN8-xL9tDfDZF2J6v-71">
          <mxGeometry x="86.5" y="3" width="5.5" height="5.5" as="geometry" />
        </mxCell>
        <mxCell id="lOCSN8-xL9tDfDZF2J6v-28" value="" style="rounded=1;whiteSpace=wrap;html=1;strokeColor=none;fillColor=#111111;strokeWidth=0.1;movable=1;resizable=1;rotatable=1;deletable=1;editable=1;locked=0;connectable=1;container=0;gradientColor=none;gradientDirection=west;arcSize=32;" vertex="1" parent="lOCSN8-xL9tDfDZF2J6v-71">
          <mxGeometry x="93" y="3" width="5.5" height="5.5" as="geometry" />
        </mxCell>
        <mxCell id="lOCSN8-xL9tDfDZF2J6v-29" value="" style="rounded=1;whiteSpace=wrap;html=1;strokeColor=none;fillColor=#111111;strokeWidth=0.1;movable=1;resizable=1;rotatable=1;deletable=1;editable=1;locked=0;connectable=1;container=0;gradientColor=none;gradientDirection=west;arcSize=32;" vertex="1" parent="lOCSN8-xL9tDfDZF2J6v-71">
          <mxGeometry x="2" y="9.5" width="5.5" height="5.5" as="geometry" />
        </mxCell>
        <mxCell id="lOCSN8-xL9tDfDZF2J6v-30" value="" style="rounded=1;whiteSpace=wrap;html=1;strokeColor=none;fillColor=#111111;strokeWidth=0.1;movable=1;resizable=1;rotatable=1;deletable=1;editable=1;locked=0;connectable=1;container=0;gradientColor=none;gradientDirection=west;arcSize=32;" vertex="1" parent="lOCSN8-xL9tDfDZF2J6v-71">
          <mxGeometry x="8.5" y="9.5" width="5.5" height="5.5" as="geometry" />
        </mxCell>
        <mxCell id="lOCSN8-xL9tDfDZF2J6v-31" value="" style="rounded=1;whiteSpace=wrap;html=1;strokeColor=none;fillColor=#111111;strokeWidth=0.1;movable=1;resizable=1;rotatable=1;deletable=1;editable=1;locked=0;connectable=1;container=0;gradientColor=none;gradientDirection=west;arcSize=32;" vertex="1" parent="lOCSN8-xL9tDfDZF2J6v-71">
          <mxGeometry x="15" y="9.5" width="5.5" height="5.5" as="geometry" />
        </mxCell>
        <mxCell id="lOCSN8-xL9tDfDZF2J6v-32" value="" style="rounded=1;whiteSpace=wrap;html=1;strokeColor=none;fillColor=#111111;strokeWidth=0.1;movable=1;resizable=1;rotatable=1;deletable=1;editable=1;locked=0;connectable=1;container=0;gradientColor=none;gradientDirection=west;arcSize=32;" vertex="1" parent="lOCSN8-xL9tDfDZF2J6v-71">
          <mxGeometry x="21.5" y="9.5" width="5.5" height="5.5" as="geometry" />
        </mxCell>
        <mxCell id="lOCSN8-xL9tDfDZF2J6v-33" value="" style="rounded=1;whiteSpace=wrap;html=1;strokeColor=none;fillColor=#111111;strokeWidth=0.1;movable=1;resizable=1;rotatable=1;deletable=1;editable=1;locked=0;connectable=1;container=0;gradientColor=none;gradientDirection=west;arcSize=32;" vertex="1" parent="lOCSN8-xL9tDfDZF2J6v-71">
          <mxGeometry x="28" y="9.5" width="5.5" height="5.5" as="geometry" />
        </mxCell>
        <mxCell id="lOCSN8-xL9tDfDZF2J6v-34" value="" style="rounded=1;whiteSpace=wrap;html=1;strokeColor=none;fillColor=#111111;strokeWidth=0.1;movable=1;resizable=1;rotatable=1;deletable=1;editable=1;locked=0;connectable=1;container=0;gradientColor=none;gradientDirection=west;arcSize=32;" vertex="1" parent="lOCSN8-xL9tDfDZF2J6v-71">
          <mxGeometry x="34.5" y="9.5" width="5.5" height="5.5" as="geometry" />
        </mxCell>
        <mxCell id="lOCSN8-xL9tDfDZF2J6v-35" value="" style="rounded=1;whiteSpace=wrap;html=1;strokeColor=none;fillColor=#111111;strokeWidth=0.1;movable=1;resizable=1;rotatable=1;deletable=1;editable=1;locked=0;connectable=1;container=0;gradientColor=none;gradientDirection=west;arcSize=32;" vertex="1" parent="lOCSN8-xL9tDfDZF2J6v-71">
          <mxGeometry x="41" y="9.5" width="5.5" height="5.5" as="geometry" />
        </mxCell>
        <mxCell id="lOCSN8-xL9tDfDZF2J6v-36" value="" style="rounded=1;whiteSpace=wrap;html=1;strokeColor=none;fillColor=#111111;strokeWidth=0.1;movable=1;resizable=1;rotatable=1;deletable=1;editable=1;locked=0;connectable=1;container=0;gradientColor=none;gradientDirection=west;arcSize=32;" vertex="1" parent="lOCSN8-xL9tDfDZF2J6v-71">
          <mxGeometry x="47.5" y="9.5" width="5.5" height="5.5" as="geometry" />
        </mxCell>
        <mxCell id="lOCSN8-xL9tDfDZF2J6v-37" value="" style="rounded=1;whiteSpace=wrap;html=1;strokeColor=none;fillColor=#111111;strokeWidth=0.1;movable=1;resizable=1;rotatable=1;deletable=1;editable=1;locked=0;connectable=1;container=0;gradientColor=none;gradientDirection=west;arcSize=32;" vertex="1" parent="lOCSN8-xL9tDfDZF2J6v-71">
          <mxGeometry x="54" y="9.5" width="5.5" height="5.5" as="geometry" />
        </mxCell>
        <mxCell id="lOCSN8-xL9tDfDZF2J6v-38" value="" style="rounded=1;whiteSpace=wrap;html=1;strokeColor=none;fillColor=#111111;strokeWidth=0.1;movable=1;resizable=1;rotatable=1;deletable=1;editable=1;locked=0;connectable=1;container=0;gradientColor=none;gradientDirection=west;arcSize=32;" vertex="1" parent="lOCSN8-xL9tDfDZF2J6v-71">
          <mxGeometry x="60.5" y="9.5" width="5.5" height="5.5" as="geometry" />
        </mxCell>
        <mxCell id="lOCSN8-xL9tDfDZF2J6v-39" value="" style="rounded=1;whiteSpace=wrap;html=1;strokeColor=none;fillColor=#111111;strokeWidth=0.1;movable=1;resizable=1;rotatable=1;deletable=1;editable=1;locked=0;connectable=1;container=0;gradientColor=none;gradientDirection=west;arcSize=32;" vertex="1" parent="lOCSN8-xL9tDfDZF2J6v-71">
          <mxGeometry x="67" y="9.5" width="5.5" height="5.5" as="geometry" />
        </mxCell>
        <mxCell id="lOCSN8-xL9tDfDZF2J6v-40" value="" style="rounded=1;whiteSpace=wrap;html=1;strokeColor=none;fillColor=#111111;strokeWidth=0.1;movable=1;resizable=1;rotatable=1;deletable=1;editable=1;locked=0;connectable=1;container=0;gradientColor=none;gradientDirection=west;arcSize=32;" vertex="1" parent="lOCSN8-xL9tDfDZF2J6v-71">
          <mxGeometry x="73.5" y="9.5" width="5.5" height="5.5" as="geometry" />
        </mxCell>
        <mxCell id="lOCSN8-xL9tDfDZF2J6v-41" value="" style="rounded=1;whiteSpace=wrap;html=1;strokeColor=none;fillColor=#111111;strokeWidth=0.1;movable=1;resizable=1;rotatable=1;deletable=1;editable=1;locked=0;connectable=1;container=0;gradientColor=none;gradientDirection=west;arcSize=32;" vertex="1" parent="lOCSN8-xL9tDfDZF2J6v-71">
          <mxGeometry x="80" y="9.5" width="5.5" height="5.5" as="geometry" />
        </mxCell>
        <mxCell id="lOCSN8-xL9tDfDZF2J6v-42" value="" style="rounded=1;whiteSpace=wrap;html=1;strokeColor=none;fillColor=#111111;strokeWidth=0.1;movable=1;resizable=1;rotatable=1;deletable=1;editable=1;locked=0;connectable=1;container=0;gradientColor=none;gradientDirection=west;arcSize=32;" vertex="1" parent="lOCSN8-xL9tDfDZF2J6v-71">
          <mxGeometry x="86.5" y="9.5" width="5.5" height="5.5" as="geometry" />
        </mxCell>
        <mxCell id="lOCSN8-xL9tDfDZF2J6v-43" value="" style="rounded=1;whiteSpace=wrap;html=1;strokeColor=none;fillColor=#111111;strokeWidth=0.1;movable=1;resizable=1;rotatable=1;deletable=1;editable=1;locked=0;connectable=1;container=0;gradientColor=none;gradientDirection=west;arcSize=32;" vertex="1" parent="lOCSN8-xL9tDfDZF2J6v-71">
          <mxGeometry x="93" y="9.5" width="5.5" height="5.5" as="geometry" />
        </mxCell>
        <mxCell id="4ou6pQqf3mK2EiXASReZ-27" value="" style="rounded=1;whiteSpace=wrap;html=1;strokeColor=#111111;fillColor=#008a00;fontColor=#ffffff;container=0;arcSize=50;strokeWidth=0.3;" parent="lOCSN8-xL9tDfDZF2J6v-71" vertex="1">
          <mxGeometry x="104" y="5" width="4" height="4" as="geometry" />
        </mxCell>
        <mxCell id="4ou6pQqf3mK2EiXASReZ-28" value="" style="rounded=1;whiteSpace=wrap;html=1;strokeColor=#111111;fillColor=#750000;fontColor=#ffffff;container=0;arcSize=50;strokeWidth=0.3;" parent="lOCSN8-xL9tDfDZF2J6v-71" vertex="1">
          <mxGeometry x="104" y="10" width="4" height="4" as="geometry" />
        </mxCell>
        <mxCell id="4ou6pQqf3mK2EiXASReZ-30" value="" style="strokeWidth=0.1;html=1;shape=mxgraph.flowchart.database;whiteSpace=wrap;strokeColor=#010101;fillColor=none;movable=1;resizable=1;rotatable=1;deletable=1;editable=1;locked=0;connectable=1;container=0;" parent="lOCSN8-xL9tDfDZF2J6v-71" vertex="1">
          <mxGeometry x="100" y="5.5" width="3" height="3" as="geometry" />
        </mxCell>
        <mxCell id="4ou6pQqf3mK2EiXASReZ-29" value="" style="strokeWidth=0.1;html=1;shape=mxgraph.flowchart.database;whiteSpace=wrap;strokeColor=#010101;fillColor=none;movable=1;resizable=1;rotatable=1;deletable=1;editable=1;locked=0;connectable=1;container=0;" parent="lOCSN8-xL9tDfDZF2J6v-71" vertex="1">
          <mxGeometry x="100" y="10.5" width="3" height="3" as="geometry" />
        </mxCell>
        <mxCell id="4ou6pQqf3mK2EiXASReZ-31" value="" style="shape=mxgraph.sysml.x;strokeWidth=0.1;strokeColor=#010101;container=0;" parent="lOCSN8-xL9tDfDZF2J6v-71" vertex="1">
          <mxGeometry x="100" y="10.5" width="3" height="3" as="geometry" />
        </mxCell>
        <mxCell id="lOCSN8-xL9tDfDZF2J6v-12" value="" style="rounded=0;whiteSpace=wrap;html=1;strokeColor=none;fillColor=#111111;strokeWidth=0.1;movable=1;resizable=1;rotatable=1;deletable=1;editable=1;locked=0;connectable=1;container=0;gradientColor=none;gradientDirection=west;" vertex="1" parent="lOCSN8-xL9tDfDZF2J6v-71">
          <mxGeometry y="17" width="109" height="8" as="geometry" />
        </mxCell>
        <mxCell id="lOCSN8-xL9tDfDZF2J6v-6" value="" style="rounded=0;whiteSpace=wrap;html=1;strokeColor=none;fillColor=#333333;strokeWidth=1;movable=1;resizable=1;rotatable=1;deletable=1;editable=1;locked=0;connectable=1;container=0;gradientColor=#222222;gradientDirection=east;" vertex="1" parent="lOCSN8-xL9tDfDZF2J6v-71">
          <mxGeometry x="34" y="18" width="50" height="6" as="geometry" />
        </mxCell>
        <mxCell id="lOCSN8-xL9tDfDZF2J6v-7" value="" style="rounded=0;whiteSpace=wrap;html=1;strokeColor=none;fillColor=#333333;strokeWidth=1;movable=1;resizable=1;rotatable=1;deletable=1;editable=1;locked=0;connectable=1;container=0;gradientColor=#222222;gradientDirection=west;" vertex="1" parent="lOCSN8-xL9tDfDZF2J6v-71">
          <mxGeometry x="4" y="18" width="30" height="6" as="geometry" />
        </mxCell>
        <mxCell id="lOCSN8-xL9tDfDZF2J6v-10" value="" style="rounded=0;whiteSpace=wrap;html=1;strokeColor=#111111;fillColor=none;strokeWidth=0.1;movable=1;resizable=1;rotatable=1;deletable=1;editable=1;locked=0;connectable=1;container=0;gradientColor=none;gradientDirection=west;" vertex="1" parent="lOCSN8-xL9tDfDZF2J6v-71">
          <mxGeometry x="6" y="18.5" width="27" height="5" as="geometry" />
        </mxCell>
        <mxCell id="lOCSN8-xL9tDfDZF2J6v-11" value="" style="rounded=0;whiteSpace=wrap;html=1;strokeColor=#111111;fillColor=none;strokeWidth=0.1;movable=1;resizable=1;rotatable=1;deletable=1;editable=1;locked=0;connectable=1;container=0;gradientColor=#222222;gradientDirection=east;" vertex="1" parent="lOCSN8-xL9tDfDZF2J6v-71">
          <mxGeometry x="35" y="18.5" width="28" height="5" as="geometry" />
        </mxCell>
        <mxCell id="lOCSN8-xL9tDfDZF2J6v-45" value="" style="rounded=0;whiteSpace=wrap;html=1;strokeColor=none;fillColor=#570000;strokeWidth=1;movable=1;resizable=1;rotatable=1;deletable=1;editable=1;locked=0;connectable=1;container=0;gradientDirection=east;fontColor=#ffffff;gradientColor=#750000;" vertex="1" parent="lOCSN8-xL9tDfDZF2J6v-71">
          <mxGeometry x="84" y="18" width="14.5" height="6" as="geometry" />
        </mxCell>
        <mxCell id="lOCSN8-xL9tDfDZF2J6v-70" value="" style="shape=or;whiteSpace=wrap;html=1;rounded=0;strokeWidth=1;align=center;verticalAlign=middle;fontFamily=Helvetica;fontSize=12;fontColor=default;resizable=1;fillColor=#222222;gradientColor=none;gradientDirection=east;strokeColor=none;" vertex="1" parent="lOCSN8-xL9tDfDZF2J6v-71">
          <mxGeometry x="84" y="18" width="2" height="6" as="geometry" />
        </mxCell>
        <mxCell id="lOCSN8-xL9tDfDZF2J6v-72" value="" style="group" vertex="1" connectable="0" parent="lOCSN8-xL9tDfDZF2J6v-213">
          <mxGeometry x="111" width="109" height="26" as="geometry" />
        </mxCell>
        <mxCell id="lOCSN8-xL9tDfDZF2J6v-73" value="" style="rounded=0;whiteSpace=wrap;html=1;strokeColor=none;fillColor=#222222;strokeWidth=1;movable=1;resizable=1;rotatable=1;deletable=1;editable=1;locked=0;connectable=1;container=0;" vertex="1" parent="lOCSN8-xL9tDfDZF2J6v-72">
          <mxGeometry width="109" height="26" as="geometry" />
        </mxCell>
        <mxCell id="lOCSN8-xL9tDfDZF2J6v-74" value="" style="rounded=0;whiteSpace=wrap;html=1;strokeColor=none;fillColor=#333333;strokeWidth=1;movable=1;resizable=1;rotatable=1;deletable=1;editable=1;locked=0;connectable=1;container=0;gradientColor=#222222;gradientDirection=east;" vertex="1" parent="lOCSN8-xL9tDfDZF2J6v-72">
          <mxGeometry x="30" width="59" height="26" as="geometry" />
        </mxCell>
        <mxCell id="lOCSN8-xL9tDfDZF2J6v-75" value="" style="rounded=0;whiteSpace=wrap;html=1;strokeColor=none;fillColor=#333333;strokeWidth=1;movable=1;resizable=1;rotatable=1;deletable=1;editable=1;locked=0;connectable=1;container=0;gradientColor=#222222;gradientDirection=west;" vertex="1" parent="lOCSN8-xL9tDfDZF2J6v-72">
          <mxGeometry width="30" height="26" as="geometry" />
        </mxCell>
        <mxCell id="lOCSN8-xL9tDfDZF2J6v-76" value="" style="rounded=0;whiteSpace=wrap;html=1;strokeColor=none;fillColor=#333333;strokeWidth=1;movable=1;resizable=1;rotatable=1;deletable=1;editable=1;locked=0;connectable=1;container=0;gradientColor=#222222;gradientDirection=west;" vertex="1" parent="lOCSN8-xL9tDfDZF2J6v-72">
          <mxGeometry x="89" width="20" height="26" as="geometry" />
        </mxCell>
        <mxCell id="lOCSN8-xL9tDfDZF2J6v-77" value="" style="rounded=1;whiteSpace=wrap;html=1;strokeColor=none;fillColor=#111111;strokeWidth=0.1;movable=1;resizable=1;rotatable=1;deletable=1;editable=1;locked=0;connectable=1;container=0;gradientColor=none;gradientDirection=west;arcSize=32;" vertex="1" parent="lOCSN8-xL9tDfDZF2J6v-72">
          <mxGeometry x="2" y="3" width="5.5" height="5.5" as="geometry" />
        </mxCell>
        <mxCell id="lOCSN8-xL9tDfDZF2J6v-78" value="" style="rounded=1;whiteSpace=wrap;html=1;strokeColor=none;fillColor=#111111;strokeWidth=0.1;movable=1;resizable=1;rotatable=1;deletable=1;editable=1;locked=0;connectable=1;container=0;gradientColor=none;gradientDirection=west;arcSize=32;" vertex="1" parent="lOCSN8-xL9tDfDZF2J6v-72">
          <mxGeometry x="8.5" y="3" width="5.5" height="5.5" as="geometry" />
        </mxCell>
        <mxCell id="lOCSN8-xL9tDfDZF2J6v-79" value="" style="rounded=1;whiteSpace=wrap;html=1;strokeColor=none;fillColor=#111111;strokeWidth=0.1;movable=1;resizable=1;rotatable=1;deletable=1;editable=1;locked=0;connectable=1;container=0;gradientColor=none;gradientDirection=west;arcSize=32;" vertex="1" parent="lOCSN8-xL9tDfDZF2J6v-72">
          <mxGeometry x="15" y="3" width="5.5" height="5.5" as="geometry" />
        </mxCell>
        <mxCell id="lOCSN8-xL9tDfDZF2J6v-80" value="" style="rounded=1;whiteSpace=wrap;html=1;strokeColor=none;fillColor=#111111;strokeWidth=0.1;movable=1;resizable=1;rotatable=1;deletable=1;editable=1;locked=0;connectable=1;container=0;gradientColor=none;gradientDirection=west;arcSize=32;" vertex="1" parent="lOCSN8-xL9tDfDZF2J6v-72">
          <mxGeometry x="21.5" y="3" width="5.5" height="5.5" as="geometry" />
        </mxCell>
        <mxCell id="lOCSN8-xL9tDfDZF2J6v-81" value="" style="rounded=1;whiteSpace=wrap;html=1;strokeColor=none;fillColor=#111111;strokeWidth=0.1;movable=1;resizable=1;rotatable=1;deletable=1;editable=1;locked=0;connectable=1;container=0;gradientColor=none;gradientDirection=west;arcSize=32;" vertex="1" parent="lOCSN8-xL9tDfDZF2J6v-72">
          <mxGeometry x="28" y="3" width="5.5" height="5.5" as="geometry" />
        </mxCell>
        <mxCell id="lOCSN8-xL9tDfDZF2J6v-82" value="" style="rounded=1;whiteSpace=wrap;html=1;strokeColor=none;fillColor=#111111;strokeWidth=0.1;movable=1;resizable=1;rotatable=1;deletable=1;editable=1;locked=0;connectable=1;container=0;gradientColor=none;gradientDirection=west;arcSize=32;" vertex="1" parent="lOCSN8-xL9tDfDZF2J6v-72">
          <mxGeometry x="34.5" y="3" width="5.5" height="5.5" as="geometry" />
        </mxCell>
        <mxCell id="lOCSN8-xL9tDfDZF2J6v-83" value="" style="rounded=1;whiteSpace=wrap;html=1;strokeColor=none;fillColor=#111111;strokeWidth=0.1;movable=1;resizable=1;rotatable=1;deletable=1;editable=1;locked=0;connectable=1;container=0;gradientColor=none;gradientDirection=west;arcSize=32;" vertex="1" parent="lOCSN8-xL9tDfDZF2J6v-72">
          <mxGeometry x="41" y="3" width="5.5" height="5.5" as="geometry" />
        </mxCell>
        <mxCell id="lOCSN8-xL9tDfDZF2J6v-84" value="" style="rounded=1;whiteSpace=wrap;html=1;strokeColor=none;fillColor=#111111;strokeWidth=0.1;movable=1;resizable=1;rotatable=1;deletable=1;editable=1;locked=0;connectable=1;container=0;gradientColor=none;gradientDirection=west;arcSize=32;" vertex="1" parent="lOCSN8-xL9tDfDZF2J6v-72">
          <mxGeometry x="47.5" y="3" width="5.5" height="5.5" as="geometry" />
        </mxCell>
        <mxCell id="lOCSN8-xL9tDfDZF2J6v-85" value="" style="rounded=1;whiteSpace=wrap;html=1;strokeColor=none;fillColor=#111111;strokeWidth=0.1;movable=1;resizable=1;rotatable=1;deletable=1;editable=1;locked=0;connectable=1;container=0;gradientColor=none;gradientDirection=west;arcSize=32;" vertex="1" parent="lOCSN8-xL9tDfDZF2J6v-72">
          <mxGeometry x="54" y="3" width="5.5" height="5.5" as="geometry" />
        </mxCell>
        <mxCell id="lOCSN8-xL9tDfDZF2J6v-86" value="" style="rounded=1;whiteSpace=wrap;html=1;strokeColor=none;fillColor=#111111;strokeWidth=0.1;movable=1;resizable=1;rotatable=1;deletable=1;editable=1;locked=0;connectable=1;container=0;gradientColor=none;gradientDirection=west;arcSize=32;" vertex="1" parent="lOCSN8-xL9tDfDZF2J6v-72">
          <mxGeometry x="60.5" y="3" width="5.5" height="5.5" as="geometry" />
        </mxCell>
        <mxCell id="lOCSN8-xL9tDfDZF2J6v-87" value="" style="rounded=1;whiteSpace=wrap;html=1;strokeColor=none;fillColor=#111111;strokeWidth=0.1;movable=1;resizable=1;rotatable=1;deletable=1;editable=1;locked=0;connectable=1;container=0;gradientColor=none;gradientDirection=west;arcSize=32;" vertex="1" parent="lOCSN8-xL9tDfDZF2J6v-72">
          <mxGeometry x="67" y="3" width="5.5" height="5.5" as="geometry" />
        </mxCell>
        <mxCell id="lOCSN8-xL9tDfDZF2J6v-88" value="" style="rounded=1;whiteSpace=wrap;html=1;strokeColor=none;fillColor=#111111;strokeWidth=0.1;movable=1;resizable=1;rotatable=1;deletable=1;editable=1;locked=0;connectable=1;container=0;gradientColor=none;gradientDirection=west;arcSize=32;" vertex="1" parent="lOCSN8-xL9tDfDZF2J6v-72">
          <mxGeometry x="73.5" y="3" width="5.5" height="5.5" as="geometry" />
        </mxCell>
        <mxCell id="lOCSN8-xL9tDfDZF2J6v-89" value="" style="rounded=1;whiteSpace=wrap;html=1;strokeColor=none;fillColor=#111111;strokeWidth=0.1;movable=1;resizable=1;rotatable=1;deletable=1;editable=1;locked=0;connectable=1;container=0;gradientColor=none;gradientDirection=west;arcSize=32;" vertex="1" parent="lOCSN8-xL9tDfDZF2J6v-72">
          <mxGeometry x="80" y="3" width="5.5" height="5.5" as="geometry" />
        </mxCell>
        <mxCell id="lOCSN8-xL9tDfDZF2J6v-90" value="" style="rounded=1;whiteSpace=wrap;html=1;strokeColor=none;fillColor=#111111;strokeWidth=0.1;movable=1;resizable=1;rotatable=1;deletable=1;editable=1;locked=0;connectable=1;container=0;gradientColor=none;gradientDirection=west;arcSize=32;" vertex="1" parent="lOCSN8-xL9tDfDZF2J6v-72">
          <mxGeometry x="86.5" y="3" width="5.5" height="5.5" as="geometry" />
        </mxCell>
        <mxCell id="lOCSN8-xL9tDfDZF2J6v-91" value="" style="rounded=1;whiteSpace=wrap;html=1;strokeColor=none;fillColor=#111111;strokeWidth=0.1;movable=1;resizable=1;rotatable=1;deletable=1;editable=1;locked=0;connectable=1;container=0;gradientColor=none;gradientDirection=west;arcSize=32;" vertex="1" parent="lOCSN8-xL9tDfDZF2J6v-72">
          <mxGeometry x="93" y="3" width="5.5" height="5.5" as="geometry" />
        </mxCell>
        <mxCell id="lOCSN8-xL9tDfDZF2J6v-92" value="" style="rounded=1;whiteSpace=wrap;html=1;strokeColor=none;fillColor=#111111;strokeWidth=0.1;movable=1;resizable=1;rotatable=1;deletable=1;editable=1;locked=0;connectable=1;container=0;gradientColor=none;gradientDirection=west;arcSize=32;" vertex="1" parent="lOCSN8-xL9tDfDZF2J6v-72">
          <mxGeometry x="2" y="9.5" width="5.5" height="5.5" as="geometry" />
        </mxCell>
        <mxCell id="lOCSN8-xL9tDfDZF2J6v-93" value="" style="rounded=1;whiteSpace=wrap;html=1;strokeColor=none;fillColor=#111111;strokeWidth=0.1;movable=1;resizable=1;rotatable=1;deletable=1;editable=1;locked=0;connectable=1;container=0;gradientColor=none;gradientDirection=west;arcSize=32;" vertex="1" parent="lOCSN8-xL9tDfDZF2J6v-72">
          <mxGeometry x="8.5" y="9.5" width="5.5" height="5.5" as="geometry" />
        </mxCell>
        <mxCell id="lOCSN8-xL9tDfDZF2J6v-94" value="" style="rounded=1;whiteSpace=wrap;html=1;strokeColor=none;fillColor=#111111;strokeWidth=0.1;movable=1;resizable=1;rotatable=1;deletable=1;editable=1;locked=0;connectable=1;container=0;gradientColor=none;gradientDirection=west;arcSize=32;" vertex="1" parent="lOCSN8-xL9tDfDZF2J6v-72">
          <mxGeometry x="15" y="9.5" width="5.5" height="5.5" as="geometry" />
        </mxCell>
        <mxCell id="lOCSN8-xL9tDfDZF2J6v-95" value="" style="rounded=1;whiteSpace=wrap;html=1;strokeColor=none;fillColor=#111111;strokeWidth=0.1;movable=1;resizable=1;rotatable=1;deletable=1;editable=1;locked=0;connectable=1;container=0;gradientColor=none;gradientDirection=west;arcSize=32;" vertex="1" parent="lOCSN8-xL9tDfDZF2J6v-72">
          <mxGeometry x="21.5" y="9.5" width="5.5" height="5.5" as="geometry" />
        </mxCell>
        <mxCell id="lOCSN8-xL9tDfDZF2J6v-96" value="" style="rounded=1;whiteSpace=wrap;html=1;strokeColor=none;fillColor=#111111;strokeWidth=0.1;movable=1;resizable=1;rotatable=1;deletable=1;editable=1;locked=0;connectable=1;container=0;gradientColor=none;gradientDirection=west;arcSize=32;" vertex="1" parent="lOCSN8-xL9tDfDZF2J6v-72">
          <mxGeometry x="28" y="9.5" width="5.5" height="5.5" as="geometry" />
        </mxCell>
        <mxCell id="lOCSN8-xL9tDfDZF2J6v-97" value="" style="rounded=1;whiteSpace=wrap;html=1;strokeColor=none;fillColor=#111111;strokeWidth=0.1;movable=1;resizable=1;rotatable=1;deletable=1;editable=1;locked=0;connectable=1;container=0;gradientColor=none;gradientDirection=west;arcSize=32;" vertex="1" parent="lOCSN8-xL9tDfDZF2J6v-72">
          <mxGeometry x="34.5" y="9.5" width="5.5" height="5.5" as="geometry" />
        </mxCell>
        <mxCell id="lOCSN8-xL9tDfDZF2J6v-98" value="" style="rounded=1;whiteSpace=wrap;html=1;strokeColor=none;fillColor=#111111;strokeWidth=0.1;movable=1;resizable=1;rotatable=1;deletable=1;editable=1;locked=0;connectable=1;container=0;gradientColor=none;gradientDirection=west;arcSize=32;" vertex="1" parent="lOCSN8-xL9tDfDZF2J6v-72">
          <mxGeometry x="41" y="9.5" width="5.5" height="5.5" as="geometry" />
        </mxCell>
        <mxCell id="lOCSN8-xL9tDfDZF2J6v-99" value="" style="rounded=1;whiteSpace=wrap;html=1;strokeColor=none;fillColor=#111111;strokeWidth=0.1;movable=1;resizable=1;rotatable=1;deletable=1;editable=1;locked=0;connectable=1;container=0;gradientColor=none;gradientDirection=west;arcSize=32;" vertex="1" parent="lOCSN8-xL9tDfDZF2J6v-72">
          <mxGeometry x="47.5" y="9.5" width="5.5" height="5.5" as="geometry" />
        </mxCell>
        <mxCell id="lOCSN8-xL9tDfDZF2J6v-100" value="" style="rounded=1;whiteSpace=wrap;html=1;strokeColor=none;fillColor=#111111;strokeWidth=0.1;movable=1;resizable=1;rotatable=1;deletable=1;editable=1;locked=0;connectable=1;container=0;gradientColor=none;gradientDirection=west;arcSize=32;" vertex="1" parent="lOCSN8-xL9tDfDZF2J6v-72">
          <mxGeometry x="54" y="9.5" width="5.5" height="5.5" as="geometry" />
        </mxCell>
        <mxCell id="lOCSN8-xL9tDfDZF2J6v-101" value="" style="rounded=1;whiteSpace=wrap;html=1;strokeColor=none;fillColor=#111111;strokeWidth=0.1;movable=1;resizable=1;rotatable=1;deletable=1;editable=1;locked=0;connectable=1;container=0;gradientColor=none;gradientDirection=west;arcSize=32;" vertex="1" parent="lOCSN8-xL9tDfDZF2J6v-72">
          <mxGeometry x="60.5" y="9.5" width="5.5" height="5.5" as="geometry" />
        </mxCell>
        <mxCell id="lOCSN8-xL9tDfDZF2J6v-102" value="" style="rounded=1;whiteSpace=wrap;html=1;strokeColor=none;fillColor=#111111;strokeWidth=0.1;movable=1;resizable=1;rotatable=1;deletable=1;editable=1;locked=0;connectable=1;container=0;gradientColor=none;gradientDirection=west;arcSize=32;" vertex="1" parent="lOCSN8-xL9tDfDZF2J6v-72">
          <mxGeometry x="67" y="9.5" width="5.5" height="5.5" as="geometry" />
        </mxCell>
        <mxCell id="lOCSN8-xL9tDfDZF2J6v-103" value="" style="rounded=1;whiteSpace=wrap;html=1;strokeColor=none;fillColor=#111111;strokeWidth=0.1;movable=1;resizable=1;rotatable=1;deletable=1;editable=1;locked=0;connectable=1;container=0;gradientColor=none;gradientDirection=west;arcSize=32;" vertex="1" parent="lOCSN8-xL9tDfDZF2J6v-72">
          <mxGeometry x="73.5" y="9.5" width="5.5" height="5.5" as="geometry" />
        </mxCell>
        <mxCell id="lOCSN8-xL9tDfDZF2J6v-104" value="" style="rounded=1;whiteSpace=wrap;html=1;strokeColor=none;fillColor=#111111;strokeWidth=0.1;movable=1;resizable=1;rotatable=1;deletable=1;editable=1;locked=0;connectable=1;container=0;gradientColor=none;gradientDirection=west;arcSize=32;" vertex="1" parent="lOCSN8-xL9tDfDZF2J6v-72">
          <mxGeometry x="80" y="9.5" width="5.5" height="5.5" as="geometry" />
        </mxCell>
        <mxCell id="lOCSN8-xL9tDfDZF2J6v-105" value="" style="rounded=1;whiteSpace=wrap;html=1;strokeColor=none;fillColor=#111111;strokeWidth=0.1;movable=1;resizable=1;rotatable=1;deletable=1;editable=1;locked=0;connectable=1;container=0;gradientColor=none;gradientDirection=west;arcSize=32;" vertex="1" parent="lOCSN8-xL9tDfDZF2J6v-72">
          <mxGeometry x="86.5" y="9.5" width="5.5" height="5.5" as="geometry" />
        </mxCell>
        <mxCell id="lOCSN8-xL9tDfDZF2J6v-106" value="" style="rounded=1;whiteSpace=wrap;html=1;strokeColor=none;fillColor=#111111;strokeWidth=0.1;movable=1;resizable=1;rotatable=1;deletable=1;editable=1;locked=0;connectable=1;container=0;gradientColor=none;gradientDirection=west;arcSize=32;" vertex="1" parent="lOCSN8-xL9tDfDZF2J6v-72">
          <mxGeometry x="93" y="9.5" width="5.5" height="5.5" as="geometry" />
        </mxCell>
        <mxCell id="lOCSN8-xL9tDfDZF2J6v-107" value="" style="rounded=1;whiteSpace=wrap;html=1;strokeColor=#111111;fillColor=#008a00;fontColor=#ffffff;container=0;arcSize=50;strokeWidth=0.3;" vertex="1" parent="lOCSN8-xL9tDfDZF2J6v-72">
          <mxGeometry x="104" y="5" width="4" height="4" as="geometry" />
        </mxCell>
        <mxCell id="lOCSN8-xL9tDfDZF2J6v-108" value="" style="rounded=1;whiteSpace=wrap;html=1;strokeColor=#111111;fillColor=#750000;fontColor=#ffffff;container=0;arcSize=50;strokeWidth=0.3;" vertex="1" parent="lOCSN8-xL9tDfDZF2J6v-72">
          <mxGeometry x="104" y="10" width="4" height="4" as="geometry" />
        </mxCell>
        <mxCell id="lOCSN8-xL9tDfDZF2J6v-109" value="" style="strokeWidth=0.1;html=1;shape=mxgraph.flowchart.database;whiteSpace=wrap;strokeColor=#010101;fillColor=none;movable=1;resizable=1;rotatable=1;deletable=1;editable=1;locked=0;connectable=1;container=0;" vertex="1" parent="lOCSN8-xL9tDfDZF2J6v-72">
          <mxGeometry x="100" y="5.5" width="3" height="3" as="geometry" />
        </mxCell>
        <mxCell id="lOCSN8-xL9tDfDZF2J6v-110" value="" style="strokeWidth=0.1;html=1;shape=mxgraph.flowchart.database;whiteSpace=wrap;strokeColor=#010101;fillColor=none;movable=1;resizable=1;rotatable=1;deletable=1;editable=1;locked=0;connectable=1;container=0;" vertex="1" parent="lOCSN8-xL9tDfDZF2J6v-72">
          <mxGeometry x="100" y="10.5" width="3" height="3" as="geometry" />
        </mxCell>
        <mxCell id="lOCSN8-xL9tDfDZF2J6v-111" value="" style="shape=mxgraph.sysml.x;strokeWidth=0.1;strokeColor=#010101;container=0;" vertex="1" parent="lOCSN8-xL9tDfDZF2J6v-72">
          <mxGeometry x="100" y="10.5" width="3" height="3" as="geometry" />
        </mxCell>
        <mxCell id="lOCSN8-xL9tDfDZF2J6v-112" value="" style="rounded=0;whiteSpace=wrap;html=1;strokeColor=none;fillColor=#111111;strokeWidth=0.1;movable=1;resizable=1;rotatable=1;deletable=1;editable=1;locked=0;connectable=1;container=0;gradientColor=none;gradientDirection=west;" vertex="1" parent="lOCSN8-xL9tDfDZF2J6v-72">
          <mxGeometry y="17" width="109" height="8" as="geometry" />
        </mxCell>
        <mxCell id="lOCSN8-xL9tDfDZF2J6v-113" value="" style="rounded=0;whiteSpace=wrap;html=1;strokeColor=none;fillColor=#333333;strokeWidth=1;movable=1;resizable=1;rotatable=1;deletable=1;editable=1;locked=0;connectable=1;container=0;gradientColor=#222222;gradientDirection=east;" vertex="1" parent="lOCSN8-xL9tDfDZF2J6v-72">
          <mxGeometry x="34" y="18" width="50" height="6" as="geometry" />
        </mxCell>
        <mxCell id="lOCSN8-xL9tDfDZF2J6v-114" value="" style="rounded=0;whiteSpace=wrap;html=1;strokeColor=none;fillColor=#333333;strokeWidth=1;movable=1;resizable=1;rotatable=1;deletable=1;editable=1;locked=0;connectable=1;container=0;gradientColor=#222222;gradientDirection=west;" vertex="1" parent="lOCSN8-xL9tDfDZF2J6v-72">
          <mxGeometry x="4" y="18" width="30" height="6" as="geometry" />
        </mxCell>
        <mxCell id="lOCSN8-xL9tDfDZF2J6v-115" value="" style="rounded=0;whiteSpace=wrap;html=1;strokeColor=#111111;fillColor=none;strokeWidth=0.1;movable=1;resizable=1;rotatable=1;deletable=1;editable=1;locked=0;connectable=1;container=0;gradientColor=none;gradientDirection=west;" vertex="1" parent="lOCSN8-xL9tDfDZF2J6v-72">
          <mxGeometry x="6" y="18.5" width="27" height="5" as="geometry" />
        </mxCell>
        <mxCell id="lOCSN8-xL9tDfDZF2J6v-116" value="" style="rounded=0;whiteSpace=wrap;html=1;strokeColor=#111111;fillColor=none;strokeWidth=0.1;movable=1;resizable=1;rotatable=1;deletable=1;editable=1;locked=0;connectable=1;container=0;gradientColor=#222222;gradientDirection=east;" vertex="1" parent="lOCSN8-xL9tDfDZF2J6v-72">
          <mxGeometry x="35" y="18.5" width="28" height="5" as="geometry" />
        </mxCell>
        <mxCell id="lOCSN8-xL9tDfDZF2J6v-117" value="" style="rounded=0;whiteSpace=wrap;html=1;strokeColor=none;fillColor=#570000;strokeWidth=1;movable=1;resizable=1;rotatable=1;deletable=1;editable=1;locked=0;connectable=1;container=0;gradientDirection=east;fontColor=#ffffff;gradientColor=#750000;" vertex="1" parent="lOCSN8-xL9tDfDZF2J6v-72">
          <mxGeometry x="84" y="18" width="14.5" height="6" as="geometry" />
        </mxCell>
        <mxCell id="lOCSN8-xL9tDfDZF2J6v-118" value="" style="shape=or;whiteSpace=wrap;html=1;rounded=0;strokeWidth=1;align=center;verticalAlign=middle;fontFamily=Helvetica;fontSize=12;fontColor=default;resizable=1;fillColor=#222222;gradientColor=none;gradientDirection=east;strokeColor=none;" vertex="1" parent="lOCSN8-xL9tDfDZF2J6v-72">
          <mxGeometry x="84" y="18" width="2" height="6" as="geometry" />
        </mxCell>
        <mxCell id="lOCSN8-xL9tDfDZF2J6v-119" value="" style="group" vertex="1" connectable="0" parent="lOCSN8-xL9tDfDZF2J6v-213">
          <mxGeometry x="222" width="109" height="26" as="geometry" />
        </mxCell>
        <mxCell id="lOCSN8-xL9tDfDZF2J6v-120" value="" style="rounded=0;whiteSpace=wrap;html=1;strokeColor=none;fillColor=#222222;strokeWidth=1;movable=1;resizable=1;rotatable=1;deletable=1;editable=1;locked=0;connectable=1;container=0;" vertex="1" parent="lOCSN8-xL9tDfDZF2J6v-119">
          <mxGeometry width="109" height="26" as="geometry" />
        </mxCell>
        <mxCell id="lOCSN8-xL9tDfDZF2J6v-121" value="" style="rounded=0;whiteSpace=wrap;html=1;strokeColor=none;fillColor=#333333;strokeWidth=1;movable=1;resizable=1;rotatable=1;deletable=1;editable=1;locked=0;connectable=1;container=0;gradientColor=#222222;gradientDirection=east;" vertex="1" parent="lOCSN8-xL9tDfDZF2J6v-119">
          <mxGeometry x="30" width="59" height="26" as="geometry" />
        </mxCell>
        <mxCell id="lOCSN8-xL9tDfDZF2J6v-122" value="" style="rounded=0;whiteSpace=wrap;html=1;strokeColor=none;fillColor=#333333;strokeWidth=1;movable=1;resizable=1;rotatable=1;deletable=1;editable=1;locked=0;connectable=1;container=0;gradientColor=#222222;gradientDirection=west;" vertex="1" parent="lOCSN8-xL9tDfDZF2J6v-119">
          <mxGeometry width="30" height="26" as="geometry" />
        </mxCell>
        <mxCell id="lOCSN8-xL9tDfDZF2J6v-123" value="" style="rounded=0;whiteSpace=wrap;html=1;strokeColor=none;fillColor=#333333;strokeWidth=1;movable=1;resizable=1;rotatable=1;deletable=1;editable=1;locked=0;connectable=1;container=0;gradientColor=#222222;gradientDirection=west;" vertex="1" parent="lOCSN8-xL9tDfDZF2J6v-119">
          <mxGeometry x="89" width="20" height="26" as="geometry" />
        </mxCell>
        <mxCell id="lOCSN8-xL9tDfDZF2J6v-124" value="" style="rounded=1;whiteSpace=wrap;html=1;strokeColor=none;fillColor=#111111;strokeWidth=0.1;movable=1;resizable=1;rotatable=1;deletable=1;editable=1;locked=0;connectable=1;container=0;gradientColor=none;gradientDirection=west;arcSize=32;" vertex="1" parent="lOCSN8-xL9tDfDZF2J6v-119">
          <mxGeometry x="2" y="3" width="5.5" height="5.5" as="geometry" />
        </mxCell>
        <mxCell id="lOCSN8-xL9tDfDZF2J6v-125" value="" style="rounded=1;whiteSpace=wrap;html=1;strokeColor=none;fillColor=#111111;strokeWidth=0.1;movable=1;resizable=1;rotatable=1;deletable=1;editable=1;locked=0;connectable=1;container=0;gradientColor=none;gradientDirection=west;arcSize=32;" vertex="1" parent="lOCSN8-xL9tDfDZF2J6v-119">
          <mxGeometry x="8.5" y="3" width="5.5" height="5.5" as="geometry" />
        </mxCell>
        <mxCell id="lOCSN8-xL9tDfDZF2J6v-126" value="" style="rounded=1;whiteSpace=wrap;html=1;strokeColor=none;fillColor=#111111;strokeWidth=0.1;movable=1;resizable=1;rotatable=1;deletable=1;editable=1;locked=0;connectable=1;container=0;gradientColor=none;gradientDirection=west;arcSize=32;" vertex="1" parent="lOCSN8-xL9tDfDZF2J6v-119">
          <mxGeometry x="15" y="3" width="5.5" height="5.5" as="geometry" />
        </mxCell>
        <mxCell id="lOCSN8-xL9tDfDZF2J6v-127" value="" style="rounded=1;whiteSpace=wrap;html=1;strokeColor=none;fillColor=#111111;strokeWidth=0.1;movable=1;resizable=1;rotatable=1;deletable=1;editable=1;locked=0;connectable=1;container=0;gradientColor=none;gradientDirection=west;arcSize=32;" vertex="1" parent="lOCSN8-xL9tDfDZF2J6v-119">
          <mxGeometry x="21.5" y="3" width="5.5" height="5.5" as="geometry" />
        </mxCell>
        <mxCell id="lOCSN8-xL9tDfDZF2J6v-128" value="" style="rounded=1;whiteSpace=wrap;html=1;strokeColor=none;fillColor=#111111;strokeWidth=0.1;movable=1;resizable=1;rotatable=1;deletable=1;editable=1;locked=0;connectable=1;container=0;gradientColor=none;gradientDirection=west;arcSize=32;" vertex="1" parent="lOCSN8-xL9tDfDZF2J6v-119">
          <mxGeometry x="28" y="3" width="5.5" height="5.5" as="geometry" />
        </mxCell>
        <mxCell id="lOCSN8-xL9tDfDZF2J6v-129" value="" style="rounded=1;whiteSpace=wrap;html=1;strokeColor=none;fillColor=#111111;strokeWidth=0.1;movable=1;resizable=1;rotatable=1;deletable=1;editable=1;locked=0;connectable=1;container=0;gradientColor=none;gradientDirection=west;arcSize=32;" vertex="1" parent="lOCSN8-xL9tDfDZF2J6v-119">
          <mxGeometry x="34.5" y="3" width="5.5" height="5.5" as="geometry" />
        </mxCell>
        <mxCell id="lOCSN8-xL9tDfDZF2J6v-130" value="" style="rounded=1;whiteSpace=wrap;html=1;strokeColor=none;fillColor=#111111;strokeWidth=0.1;movable=1;resizable=1;rotatable=1;deletable=1;editable=1;locked=0;connectable=1;container=0;gradientColor=none;gradientDirection=west;arcSize=32;" vertex="1" parent="lOCSN8-xL9tDfDZF2J6v-119">
          <mxGeometry x="41" y="3" width="5.5" height="5.5" as="geometry" />
        </mxCell>
        <mxCell id="lOCSN8-xL9tDfDZF2J6v-131" value="" style="rounded=1;whiteSpace=wrap;html=1;strokeColor=none;fillColor=#111111;strokeWidth=0.1;movable=1;resizable=1;rotatable=1;deletable=1;editable=1;locked=0;connectable=1;container=0;gradientColor=none;gradientDirection=west;arcSize=32;" vertex="1" parent="lOCSN8-xL9tDfDZF2J6v-119">
          <mxGeometry x="47.5" y="3" width="5.5" height="5.5" as="geometry" />
        </mxCell>
        <mxCell id="lOCSN8-xL9tDfDZF2J6v-132" value="" style="rounded=1;whiteSpace=wrap;html=1;strokeColor=none;fillColor=#111111;strokeWidth=0.1;movable=1;resizable=1;rotatable=1;deletable=1;editable=1;locked=0;connectable=1;container=0;gradientColor=none;gradientDirection=west;arcSize=32;" vertex="1" parent="lOCSN8-xL9tDfDZF2J6v-119">
          <mxGeometry x="54" y="3" width="5.5" height="5.5" as="geometry" />
        </mxCell>
        <mxCell id="lOCSN8-xL9tDfDZF2J6v-133" value="" style="rounded=1;whiteSpace=wrap;html=1;strokeColor=none;fillColor=#111111;strokeWidth=0.1;movable=1;resizable=1;rotatable=1;deletable=1;editable=1;locked=0;connectable=1;container=0;gradientColor=none;gradientDirection=west;arcSize=32;" vertex="1" parent="lOCSN8-xL9tDfDZF2J6v-119">
          <mxGeometry x="60.5" y="3" width="5.5" height="5.5" as="geometry" />
        </mxCell>
        <mxCell id="lOCSN8-xL9tDfDZF2J6v-134" value="" style="rounded=1;whiteSpace=wrap;html=1;strokeColor=none;fillColor=#111111;strokeWidth=0.1;movable=1;resizable=1;rotatable=1;deletable=1;editable=1;locked=0;connectable=1;container=0;gradientColor=none;gradientDirection=west;arcSize=32;" vertex="1" parent="lOCSN8-xL9tDfDZF2J6v-119">
          <mxGeometry x="67" y="3" width="5.5" height="5.5" as="geometry" />
        </mxCell>
        <mxCell id="lOCSN8-xL9tDfDZF2J6v-135" value="" style="rounded=1;whiteSpace=wrap;html=1;strokeColor=none;fillColor=#111111;strokeWidth=0.1;movable=1;resizable=1;rotatable=1;deletable=1;editable=1;locked=0;connectable=1;container=0;gradientColor=none;gradientDirection=west;arcSize=32;" vertex="1" parent="lOCSN8-xL9tDfDZF2J6v-119">
          <mxGeometry x="73.5" y="3" width="5.5" height="5.5" as="geometry" />
        </mxCell>
        <mxCell id="lOCSN8-xL9tDfDZF2J6v-136" value="" style="rounded=1;whiteSpace=wrap;html=1;strokeColor=none;fillColor=#111111;strokeWidth=0.1;movable=1;resizable=1;rotatable=1;deletable=1;editable=1;locked=0;connectable=1;container=0;gradientColor=none;gradientDirection=west;arcSize=32;" vertex="1" parent="lOCSN8-xL9tDfDZF2J6v-119">
          <mxGeometry x="80" y="3" width="5.5" height="5.5" as="geometry" />
        </mxCell>
        <mxCell id="lOCSN8-xL9tDfDZF2J6v-137" value="" style="rounded=1;whiteSpace=wrap;html=1;strokeColor=none;fillColor=#111111;strokeWidth=0.1;movable=1;resizable=1;rotatable=1;deletable=1;editable=1;locked=0;connectable=1;container=0;gradientColor=none;gradientDirection=west;arcSize=32;" vertex="1" parent="lOCSN8-xL9tDfDZF2J6v-119">
          <mxGeometry x="86.5" y="3" width="5.5" height="5.5" as="geometry" />
        </mxCell>
        <mxCell id="lOCSN8-xL9tDfDZF2J6v-138" value="" style="rounded=1;whiteSpace=wrap;html=1;strokeColor=none;fillColor=#111111;strokeWidth=0.1;movable=1;resizable=1;rotatable=1;deletable=1;editable=1;locked=0;connectable=1;container=0;gradientColor=none;gradientDirection=west;arcSize=32;" vertex="1" parent="lOCSN8-xL9tDfDZF2J6v-119">
          <mxGeometry x="93" y="3" width="5.5" height="5.5" as="geometry" />
        </mxCell>
        <mxCell id="lOCSN8-xL9tDfDZF2J6v-139" value="" style="rounded=1;whiteSpace=wrap;html=1;strokeColor=none;fillColor=#111111;strokeWidth=0.1;movable=1;resizable=1;rotatable=1;deletable=1;editable=1;locked=0;connectable=1;container=0;gradientColor=none;gradientDirection=west;arcSize=32;" vertex="1" parent="lOCSN8-xL9tDfDZF2J6v-119">
          <mxGeometry x="2" y="9.5" width="5.5" height="5.5" as="geometry" />
        </mxCell>
        <mxCell id="lOCSN8-xL9tDfDZF2J6v-140" value="" style="rounded=1;whiteSpace=wrap;html=1;strokeColor=none;fillColor=#111111;strokeWidth=0.1;movable=1;resizable=1;rotatable=1;deletable=1;editable=1;locked=0;connectable=1;container=0;gradientColor=none;gradientDirection=west;arcSize=32;" vertex="1" parent="lOCSN8-xL9tDfDZF2J6v-119">
          <mxGeometry x="8.5" y="9.5" width="5.5" height="5.5" as="geometry" />
        </mxCell>
        <mxCell id="lOCSN8-xL9tDfDZF2J6v-141" value="" style="rounded=1;whiteSpace=wrap;html=1;strokeColor=none;fillColor=#111111;strokeWidth=0.1;movable=1;resizable=1;rotatable=1;deletable=1;editable=1;locked=0;connectable=1;container=0;gradientColor=none;gradientDirection=west;arcSize=32;" vertex="1" parent="lOCSN8-xL9tDfDZF2J6v-119">
          <mxGeometry x="15" y="9.5" width="5.5" height="5.5" as="geometry" />
        </mxCell>
        <mxCell id="lOCSN8-xL9tDfDZF2J6v-142" value="" style="rounded=1;whiteSpace=wrap;html=1;strokeColor=none;fillColor=#111111;strokeWidth=0.1;movable=1;resizable=1;rotatable=1;deletable=1;editable=1;locked=0;connectable=1;container=0;gradientColor=none;gradientDirection=west;arcSize=32;" vertex="1" parent="lOCSN8-xL9tDfDZF2J6v-119">
          <mxGeometry x="21.5" y="9.5" width="5.5" height="5.5" as="geometry" />
        </mxCell>
        <mxCell id="lOCSN8-xL9tDfDZF2J6v-143" value="" style="rounded=1;whiteSpace=wrap;html=1;strokeColor=none;fillColor=#111111;strokeWidth=0.1;movable=1;resizable=1;rotatable=1;deletable=1;editable=1;locked=0;connectable=1;container=0;gradientColor=none;gradientDirection=west;arcSize=32;" vertex="1" parent="lOCSN8-xL9tDfDZF2J6v-119">
          <mxGeometry x="28" y="9.5" width="5.5" height="5.5" as="geometry" />
        </mxCell>
        <mxCell id="lOCSN8-xL9tDfDZF2J6v-144" value="" style="rounded=1;whiteSpace=wrap;html=1;strokeColor=none;fillColor=#111111;strokeWidth=0.1;movable=1;resizable=1;rotatable=1;deletable=1;editable=1;locked=0;connectable=1;container=0;gradientColor=none;gradientDirection=west;arcSize=32;" vertex="1" parent="lOCSN8-xL9tDfDZF2J6v-119">
          <mxGeometry x="34.5" y="9.5" width="5.5" height="5.5" as="geometry" />
        </mxCell>
        <mxCell id="lOCSN8-xL9tDfDZF2J6v-145" value="" style="rounded=1;whiteSpace=wrap;html=1;strokeColor=none;fillColor=#111111;strokeWidth=0.1;movable=1;resizable=1;rotatable=1;deletable=1;editable=1;locked=0;connectable=1;container=0;gradientColor=none;gradientDirection=west;arcSize=32;" vertex="1" parent="lOCSN8-xL9tDfDZF2J6v-119">
          <mxGeometry x="41" y="9.5" width="5.5" height="5.5" as="geometry" />
        </mxCell>
        <mxCell id="lOCSN8-xL9tDfDZF2J6v-146" value="" style="rounded=1;whiteSpace=wrap;html=1;strokeColor=none;fillColor=#111111;strokeWidth=0.1;movable=1;resizable=1;rotatable=1;deletable=1;editable=1;locked=0;connectable=1;container=0;gradientColor=none;gradientDirection=west;arcSize=32;" vertex="1" parent="lOCSN8-xL9tDfDZF2J6v-119">
          <mxGeometry x="47.5" y="9.5" width="5.5" height="5.5" as="geometry" />
        </mxCell>
        <mxCell id="lOCSN8-xL9tDfDZF2J6v-147" value="" style="rounded=1;whiteSpace=wrap;html=1;strokeColor=none;fillColor=#111111;strokeWidth=0.1;movable=1;resizable=1;rotatable=1;deletable=1;editable=1;locked=0;connectable=1;container=0;gradientColor=none;gradientDirection=west;arcSize=32;" vertex="1" parent="lOCSN8-xL9tDfDZF2J6v-119">
          <mxGeometry x="54" y="9.5" width="5.5" height="5.5" as="geometry" />
        </mxCell>
        <mxCell id="lOCSN8-xL9tDfDZF2J6v-148" value="" style="rounded=1;whiteSpace=wrap;html=1;strokeColor=none;fillColor=#111111;strokeWidth=0.1;movable=1;resizable=1;rotatable=1;deletable=1;editable=1;locked=0;connectable=1;container=0;gradientColor=none;gradientDirection=west;arcSize=32;" vertex="1" parent="lOCSN8-xL9tDfDZF2J6v-119">
          <mxGeometry x="60.5" y="9.5" width="5.5" height="5.5" as="geometry" />
        </mxCell>
        <mxCell id="lOCSN8-xL9tDfDZF2J6v-149" value="" style="rounded=1;whiteSpace=wrap;html=1;strokeColor=none;fillColor=#111111;strokeWidth=0.1;movable=1;resizable=1;rotatable=1;deletable=1;editable=1;locked=0;connectable=1;container=0;gradientColor=none;gradientDirection=west;arcSize=32;" vertex="1" parent="lOCSN8-xL9tDfDZF2J6v-119">
          <mxGeometry x="67" y="9.5" width="5.5" height="5.5" as="geometry" />
        </mxCell>
        <mxCell id="lOCSN8-xL9tDfDZF2J6v-150" value="" style="rounded=1;whiteSpace=wrap;html=1;strokeColor=none;fillColor=#111111;strokeWidth=0.1;movable=1;resizable=1;rotatable=1;deletable=1;editable=1;locked=0;connectable=1;container=0;gradientColor=none;gradientDirection=west;arcSize=32;" vertex="1" parent="lOCSN8-xL9tDfDZF2J6v-119">
          <mxGeometry x="73.5" y="9.5" width="5.5" height="5.5" as="geometry" />
        </mxCell>
        <mxCell id="lOCSN8-xL9tDfDZF2J6v-151" value="" style="rounded=1;whiteSpace=wrap;html=1;strokeColor=none;fillColor=#111111;strokeWidth=0.1;movable=1;resizable=1;rotatable=1;deletable=1;editable=1;locked=0;connectable=1;container=0;gradientColor=none;gradientDirection=west;arcSize=32;" vertex="1" parent="lOCSN8-xL9tDfDZF2J6v-119">
          <mxGeometry x="80" y="9.5" width="5.5" height="5.5" as="geometry" />
        </mxCell>
        <mxCell id="lOCSN8-xL9tDfDZF2J6v-152" value="" style="rounded=1;whiteSpace=wrap;html=1;strokeColor=none;fillColor=#111111;strokeWidth=0.1;movable=1;resizable=1;rotatable=1;deletable=1;editable=1;locked=0;connectable=1;container=0;gradientColor=none;gradientDirection=west;arcSize=32;" vertex="1" parent="lOCSN8-xL9tDfDZF2J6v-119">
          <mxGeometry x="86.5" y="9.5" width="5.5" height="5.5" as="geometry" />
        </mxCell>
        <mxCell id="lOCSN8-xL9tDfDZF2J6v-153" value="" style="rounded=1;whiteSpace=wrap;html=1;strokeColor=none;fillColor=#111111;strokeWidth=0.1;movable=1;resizable=1;rotatable=1;deletable=1;editable=1;locked=0;connectable=1;container=0;gradientColor=none;gradientDirection=west;arcSize=32;" vertex="1" parent="lOCSN8-xL9tDfDZF2J6v-119">
          <mxGeometry x="93" y="9.5" width="5.5" height="5.5" as="geometry" />
        </mxCell>
        <mxCell id="lOCSN8-xL9tDfDZF2J6v-154" value="" style="rounded=1;whiteSpace=wrap;html=1;strokeColor=#111111;fillColor=#008a00;fontColor=#ffffff;container=0;arcSize=50;strokeWidth=0.3;" vertex="1" parent="lOCSN8-xL9tDfDZF2J6v-119">
          <mxGeometry x="104" y="5" width="4" height="4" as="geometry" />
        </mxCell>
        <mxCell id="lOCSN8-xL9tDfDZF2J6v-155" value="" style="rounded=1;whiteSpace=wrap;html=1;strokeColor=#111111;fillColor=#750000;fontColor=#ffffff;container=0;arcSize=50;strokeWidth=0.3;" vertex="1" parent="lOCSN8-xL9tDfDZF2J6v-119">
          <mxGeometry x="104" y="10" width="4" height="4" as="geometry" />
        </mxCell>
        <mxCell id="lOCSN8-xL9tDfDZF2J6v-156" value="" style="strokeWidth=0.1;html=1;shape=mxgraph.flowchart.database;whiteSpace=wrap;strokeColor=#010101;fillColor=none;movable=1;resizable=1;rotatable=1;deletable=1;editable=1;locked=0;connectable=1;container=0;" vertex="1" parent="lOCSN8-xL9tDfDZF2J6v-119">
          <mxGeometry x="100" y="5.5" width="3" height="3" as="geometry" />
        </mxCell>
        <mxCell id="lOCSN8-xL9tDfDZF2J6v-157" value="" style="strokeWidth=0.1;html=1;shape=mxgraph.flowchart.database;whiteSpace=wrap;strokeColor=#010101;fillColor=none;movable=1;resizable=1;rotatable=1;deletable=1;editable=1;locked=0;connectable=1;container=0;" vertex="1" parent="lOCSN8-xL9tDfDZF2J6v-119">
          <mxGeometry x="100" y="10.5" width="3" height="3" as="geometry" />
        </mxCell>
        <mxCell id="lOCSN8-xL9tDfDZF2J6v-158" value="" style="shape=mxgraph.sysml.x;strokeWidth=0.1;strokeColor=#010101;container=0;" vertex="1" parent="lOCSN8-xL9tDfDZF2J6v-119">
          <mxGeometry x="100" y="10.5" width="3" height="3" as="geometry" />
        </mxCell>
        <mxCell id="lOCSN8-xL9tDfDZF2J6v-159" value="" style="rounded=0;whiteSpace=wrap;html=1;strokeColor=none;fillColor=#111111;strokeWidth=0.1;movable=1;resizable=1;rotatable=1;deletable=1;editable=1;locked=0;connectable=1;container=0;gradientColor=none;gradientDirection=west;" vertex="1" parent="lOCSN8-xL9tDfDZF2J6v-119">
          <mxGeometry y="17" width="109" height="8" as="geometry" />
        </mxCell>
        <mxCell id="lOCSN8-xL9tDfDZF2J6v-160" value="" style="rounded=0;whiteSpace=wrap;html=1;strokeColor=none;fillColor=#333333;strokeWidth=1;movable=1;resizable=1;rotatable=1;deletable=1;editable=1;locked=0;connectable=1;container=0;gradientColor=#222222;gradientDirection=east;" vertex="1" parent="lOCSN8-xL9tDfDZF2J6v-119">
          <mxGeometry x="34" y="18" width="50" height="6" as="geometry" />
        </mxCell>
        <mxCell id="lOCSN8-xL9tDfDZF2J6v-161" value="" style="rounded=0;whiteSpace=wrap;html=1;strokeColor=none;fillColor=#333333;strokeWidth=1;movable=1;resizable=1;rotatable=1;deletable=1;editable=1;locked=0;connectable=1;container=0;gradientColor=#222222;gradientDirection=west;" vertex="1" parent="lOCSN8-xL9tDfDZF2J6v-119">
          <mxGeometry x="4" y="18" width="30" height="6" as="geometry" />
        </mxCell>
        <mxCell id="lOCSN8-xL9tDfDZF2J6v-162" value="" style="rounded=0;whiteSpace=wrap;html=1;strokeColor=#111111;fillColor=none;strokeWidth=0.1;movable=1;resizable=1;rotatable=1;deletable=1;editable=1;locked=0;connectable=1;container=0;gradientColor=none;gradientDirection=west;" vertex="1" parent="lOCSN8-xL9tDfDZF2J6v-119">
          <mxGeometry x="6" y="18.5" width="27" height="5" as="geometry" />
        </mxCell>
        <mxCell id="lOCSN8-xL9tDfDZF2J6v-163" value="" style="rounded=0;whiteSpace=wrap;html=1;strokeColor=#111111;fillColor=none;strokeWidth=0.1;movable=1;resizable=1;rotatable=1;deletable=1;editable=1;locked=0;connectable=1;container=0;gradientColor=#222222;gradientDirection=east;" vertex="1" parent="lOCSN8-xL9tDfDZF2J6v-119">
          <mxGeometry x="35" y="18.5" width="28" height="5" as="geometry" />
        </mxCell>
        <mxCell id="lOCSN8-xL9tDfDZF2J6v-164" value="" style="rounded=0;whiteSpace=wrap;html=1;strokeColor=none;fillColor=#570000;strokeWidth=1;movable=1;resizable=1;rotatable=1;deletable=1;editable=1;locked=0;connectable=1;container=0;gradientDirection=east;fontColor=#ffffff;gradientColor=#750000;" vertex="1" parent="lOCSN8-xL9tDfDZF2J6v-119">
          <mxGeometry x="84" y="18" width="14.5" height="6" as="geometry" />
        </mxCell>
        <mxCell id="lOCSN8-xL9tDfDZF2J6v-165" value="" style="shape=or;whiteSpace=wrap;html=1;rounded=0;strokeWidth=1;align=center;verticalAlign=middle;fontFamily=Helvetica;fontSize=12;fontColor=default;resizable=1;fillColor=#222222;gradientColor=none;gradientDirection=east;strokeColor=none;" vertex="1" parent="lOCSN8-xL9tDfDZF2J6v-119">
          <mxGeometry x="84" y="18" width="2" height="6" as="geometry" />
        </mxCell>
        <mxCell id="lOCSN8-xL9tDfDZF2J6v-166" value="" style="group" vertex="1" connectable="0" parent="lOCSN8-xL9tDfDZF2J6v-213">
          <mxGeometry x="333" width="109" height="26" as="geometry" />
        </mxCell>
        <mxCell id="lOCSN8-xL9tDfDZF2J6v-167" value="" style="rounded=0;whiteSpace=wrap;html=1;strokeColor=none;fillColor=#222222;strokeWidth=1;movable=1;resizable=1;rotatable=1;deletable=1;editable=1;locked=0;connectable=1;container=0;" vertex="1" parent="lOCSN8-xL9tDfDZF2J6v-166">
          <mxGeometry width="109" height="26" as="geometry" />
        </mxCell>
        <mxCell id="lOCSN8-xL9tDfDZF2J6v-168" value="" style="rounded=0;whiteSpace=wrap;html=1;strokeColor=none;fillColor=#333333;strokeWidth=1;movable=1;resizable=1;rotatable=1;deletable=1;editable=1;locked=0;connectable=1;container=0;gradientColor=#222222;gradientDirection=east;" vertex="1" parent="lOCSN8-xL9tDfDZF2J6v-166">
          <mxGeometry x="30" width="59" height="26" as="geometry" />
        </mxCell>
        <mxCell id="lOCSN8-xL9tDfDZF2J6v-169" value="" style="rounded=0;whiteSpace=wrap;html=1;strokeColor=none;fillColor=#333333;strokeWidth=1;movable=1;resizable=1;rotatable=1;deletable=1;editable=1;locked=0;connectable=1;container=0;gradientColor=#222222;gradientDirection=west;" vertex="1" parent="lOCSN8-xL9tDfDZF2J6v-166">
          <mxGeometry width="30" height="26" as="geometry" />
        </mxCell>
        <mxCell id="lOCSN8-xL9tDfDZF2J6v-170" value="" style="rounded=0;whiteSpace=wrap;html=1;strokeColor=none;fillColor=#333333;strokeWidth=1;movable=1;resizable=1;rotatable=1;deletable=1;editable=1;locked=0;connectable=1;container=0;gradientColor=#222222;gradientDirection=west;" vertex="1" parent="lOCSN8-xL9tDfDZF2J6v-166">
          <mxGeometry x="89" width="20" height="26" as="geometry" />
        </mxCell>
        <mxCell id="lOCSN8-xL9tDfDZF2J6v-171" value="" style="rounded=1;whiteSpace=wrap;html=1;strokeColor=none;fillColor=#111111;strokeWidth=0.1;movable=1;resizable=1;rotatable=1;deletable=1;editable=1;locked=0;connectable=1;container=0;gradientColor=none;gradientDirection=west;arcSize=32;" vertex="1" parent="lOCSN8-xL9tDfDZF2J6v-166">
          <mxGeometry x="2" y="3" width="5.5" height="5.5" as="geometry" />
        </mxCell>
        <mxCell id="lOCSN8-xL9tDfDZF2J6v-172" value="" style="rounded=1;whiteSpace=wrap;html=1;strokeColor=none;fillColor=#111111;strokeWidth=0.1;movable=1;resizable=1;rotatable=1;deletable=1;editable=1;locked=0;connectable=1;container=0;gradientColor=none;gradientDirection=west;arcSize=32;" vertex="1" parent="lOCSN8-xL9tDfDZF2J6v-166">
          <mxGeometry x="8.5" y="3" width="5.5" height="5.5" as="geometry" />
        </mxCell>
        <mxCell id="lOCSN8-xL9tDfDZF2J6v-173" value="" style="rounded=1;whiteSpace=wrap;html=1;strokeColor=none;fillColor=#111111;strokeWidth=0.1;movable=1;resizable=1;rotatable=1;deletable=1;editable=1;locked=0;connectable=1;container=0;gradientColor=none;gradientDirection=west;arcSize=32;" vertex="1" parent="lOCSN8-xL9tDfDZF2J6v-166">
          <mxGeometry x="15" y="3" width="5.5" height="5.5" as="geometry" />
        </mxCell>
        <mxCell id="lOCSN8-xL9tDfDZF2J6v-174" value="" style="rounded=1;whiteSpace=wrap;html=1;strokeColor=none;fillColor=#111111;strokeWidth=0.1;movable=1;resizable=1;rotatable=1;deletable=1;editable=1;locked=0;connectable=1;container=0;gradientColor=none;gradientDirection=west;arcSize=32;" vertex="1" parent="lOCSN8-xL9tDfDZF2J6v-166">
          <mxGeometry x="21.5" y="3" width="5.5" height="5.5" as="geometry" />
        </mxCell>
        <mxCell id="lOCSN8-xL9tDfDZF2J6v-175" value="" style="rounded=1;whiteSpace=wrap;html=1;strokeColor=none;fillColor=#111111;strokeWidth=0.1;movable=1;resizable=1;rotatable=1;deletable=1;editable=1;locked=0;connectable=1;container=0;gradientColor=none;gradientDirection=west;arcSize=32;" vertex="1" parent="lOCSN8-xL9tDfDZF2J6v-166">
          <mxGeometry x="28" y="3" width="5.5" height="5.5" as="geometry" />
        </mxCell>
        <mxCell id="lOCSN8-xL9tDfDZF2J6v-176" value="" style="rounded=1;whiteSpace=wrap;html=1;strokeColor=none;fillColor=#111111;strokeWidth=0.1;movable=1;resizable=1;rotatable=1;deletable=1;editable=1;locked=0;connectable=1;container=0;gradientColor=none;gradientDirection=west;arcSize=32;" vertex="1" parent="lOCSN8-xL9tDfDZF2J6v-166">
          <mxGeometry x="34.5" y="3" width="5.5" height="5.5" as="geometry" />
        </mxCell>
        <mxCell id="lOCSN8-xL9tDfDZF2J6v-177" value="" style="rounded=1;whiteSpace=wrap;html=1;strokeColor=none;fillColor=#111111;strokeWidth=0.1;movable=1;resizable=1;rotatable=1;deletable=1;editable=1;locked=0;connectable=1;container=0;gradientColor=none;gradientDirection=west;arcSize=32;" vertex="1" parent="lOCSN8-xL9tDfDZF2J6v-166">
          <mxGeometry x="41" y="3" width="5.5" height="5.5" as="geometry" />
        </mxCell>
        <mxCell id="lOCSN8-xL9tDfDZF2J6v-178" value="" style="rounded=1;whiteSpace=wrap;html=1;strokeColor=none;fillColor=#111111;strokeWidth=0.1;movable=1;resizable=1;rotatable=1;deletable=1;editable=1;locked=0;connectable=1;container=0;gradientColor=none;gradientDirection=west;arcSize=32;" vertex="1" parent="lOCSN8-xL9tDfDZF2J6v-166">
          <mxGeometry x="47.5" y="3" width="5.5" height="5.5" as="geometry" />
        </mxCell>
        <mxCell id="lOCSN8-xL9tDfDZF2J6v-179" value="" style="rounded=1;whiteSpace=wrap;html=1;strokeColor=none;fillColor=#111111;strokeWidth=0.1;movable=1;resizable=1;rotatable=1;deletable=1;editable=1;locked=0;connectable=1;container=0;gradientColor=none;gradientDirection=west;arcSize=32;" vertex="1" parent="lOCSN8-xL9tDfDZF2J6v-166">
          <mxGeometry x="54" y="3" width="5.5" height="5.5" as="geometry" />
        </mxCell>
        <mxCell id="lOCSN8-xL9tDfDZF2J6v-180" value="" style="rounded=1;whiteSpace=wrap;html=1;strokeColor=none;fillColor=#111111;strokeWidth=0.1;movable=1;resizable=1;rotatable=1;deletable=1;editable=1;locked=0;connectable=1;container=0;gradientColor=none;gradientDirection=west;arcSize=32;" vertex="1" parent="lOCSN8-xL9tDfDZF2J6v-166">
          <mxGeometry x="60.5" y="3" width="5.5" height="5.5" as="geometry" />
        </mxCell>
        <mxCell id="lOCSN8-xL9tDfDZF2J6v-181" value="" style="rounded=1;whiteSpace=wrap;html=1;strokeColor=none;fillColor=#111111;strokeWidth=0.1;movable=1;resizable=1;rotatable=1;deletable=1;editable=1;locked=0;connectable=1;container=0;gradientColor=none;gradientDirection=west;arcSize=32;" vertex="1" parent="lOCSN8-xL9tDfDZF2J6v-166">
          <mxGeometry x="67" y="3" width="5.5" height="5.5" as="geometry" />
        </mxCell>
        <mxCell id="lOCSN8-xL9tDfDZF2J6v-182" value="" style="rounded=1;whiteSpace=wrap;html=1;strokeColor=none;fillColor=#111111;strokeWidth=0.1;movable=1;resizable=1;rotatable=1;deletable=1;editable=1;locked=0;connectable=1;container=0;gradientColor=none;gradientDirection=west;arcSize=32;" vertex="1" parent="lOCSN8-xL9tDfDZF2J6v-166">
          <mxGeometry x="73.5" y="3" width="5.5" height="5.5" as="geometry" />
        </mxCell>
        <mxCell id="lOCSN8-xL9tDfDZF2J6v-183" value="" style="rounded=1;whiteSpace=wrap;html=1;strokeColor=none;fillColor=#111111;strokeWidth=0.1;movable=1;resizable=1;rotatable=1;deletable=1;editable=1;locked=0;connectable=1;container=0;gradientColor=none;gradientDirection=west;arcSize=32;" vertex="1" parent="lOCSN8-xL9tDfDZF2J6v-166">
          <mxGeometry x="80" y="3" width="5.5" height="5.5" as="geometry" />
        </mxCell>
        <mxCell id="lOCSN8-xL9tDfDZF2J6v-184" value="" style="rounded=1;whiteSpace=wrap;html=1;strokeColor=none;fillColor=#111111;strokeWidth=0.1;movable=1;resizable=1;rotatable=1;deletable=1;editable=1;locked=0;connectable=1;container=0;gradientColor=none;gradientDirection=west;arcSize=32;" vertex="1" parent="lOCSN8-xL9tDfDZF2J6v-166">
          <mxGeometry x="86.5" y="3" width="5.5" height="5.5" as="geometry" />
        </mxCell>
        <mxCell id="lOCSN8-xL9tDfDZF2J6v-185" value="" style="rounded=1;whiteSpace=wrap;html=1;strokeColor=none;fillColor=#111111;strokeWidth=0.1;movable=1;resizable=1;rotatable=1;deletable=1;editable=1;locked=0;connectable=1;container=0;gradientColor=none;gradientDirection=west;arcSize=32;" vertex="1" parent="lOCSN8-xL9tDfDZF2J6v-166">
          <mxGeometry x="93" y="3" width="5.5" height="5.5" as="geometry" />
        </mxCell>
        <mxCell id="lOCSN8-xL9tDfDZF2J6v-186" value="" style="rounded=1;whiteSpace=wrap;html=1;strokeColor=none;fillColor=#111111;strokeWidth=0.1;movable=1;resizable=1;rotatable=1;deletable=1;editable=1;locked=0;connectable=1;container=0;gradientColor=none;gradientDirection=west;arcSize=32;" vertex="1" parent="lOCSN8-xL9tDfDZF2J6v-166">
          <mxGeometry x="2" y="9.5" width="5.5" height="5.5" as="geometry" />
        </mxCell>
        <mxCell id="lOCSN8-xL9tDfDZF2J6v-187" value="" style="rounded=1;whiteSpace=wrap;html=1;strokeColor=none;fillColor=#111111;strokeWidth=0.1;movable=1;resizable=1;rotatable=1;deletable=1;editable=1;locked=0;connectable=1;container=0;gradientColor=none;gradientDirection=west;arcSize=32;" vertex="1" parent="lOCSN8-xL9tDfDZF2J6v-166">
          <mxGeometry x="8.5" y="9.5" width="5.5" height="5.5" as="geometry" />
        </mxCell>
        <mxCell id="lOCSN8-xL9tDfDZF2J6v-188" value="" style="rounded=1;whiteSpace=wrap;html=1;strokeColor=none;fillColor=#111111;strokeWidth=0.1;movable=1;resizable=1;rotatable=1;deletable=1;editable=1;locked=0;connectable=1;container=0;gradientColor=none;gradientDirection=west;arcSize=32;" vertex="1" parent="lOCSN8-xL9tDfDZF2J6v-166">
          <mxGeometry x="15" y="9.5" width="5.5" height="5.5" as="geometry" />
        </mxCell>
        <mxCell id="lOCSN8-xL9tDfDZF2J6v-189" value="" style="rounded=1;whiteSpace=wrap;html=1;strokeColor=none;fillColor=#111111;strokeWidth=0.1;movable=1;resizable=1;rotatable=1;deletable=1;editable=1;locked=0;connectable=1;container=0;gradientColor=none;gradientDirection=west;arcSize=32;" vertex="1" parent="lOCSN8-xL9tDfDZF2J6v-166">
          <mxGeometry x="21.5" y="9.5" width="5.5" height="5.5" as="geometry" />
        </mxCell>
        <mxCell id="lOCSN8-xL9tDfDZF2J6v-190" value="" style="rounded=1;whiteSpace=wrap;html=1;strokeColor=none;fillColor=#111111;strokeWidth=0.1;movable=1;resizable=1;rotatable=1;deletable=1;editable=1;locked=0;connectable=1;container=0;gradientColor=none;gradientDirection=west;arcSize=32;" vertex="1" parent="lOCSN8-xL9tDfDZF2J6v-166">
          <mxGeometry x="28" y="9.5" width="5.5" height="5.5" as="geometry" />
        </mxCell>
        <mxCell id="lOCSN8-xL9tDfDZF2J6v-191" value="" style="rounded=1;whiteSpace=wrap;html=1;strokeColor=none;fillColor=#111111;strokeWidth=0.1;movable=1;resizable=1;rotatable=1;deletable=1;editable=1;locked=0;connectable=1;container=0;gradientColor=none;gradientDirection=west;arcSize=32;" vertex="1" parent="lOCSN8-xL9tDfDZF2J6v-166">
          <mxGeometry x="34.5" y="9.5" width="5.5" height="5.5" as="geometry" />
        </mxCell>
        <mxCell id="lOCSN8-xL9tDfDZF2J6v-192" value="" style="rounded=1;whiteSpace=wrap;html=1;strokeColor=none;fillColor=#111111;strokeWidth=0.1;movable=1;resizable=1;rotatable=1;deletable=1;editable=1;locked=0;connectable=1;container=0;gradientColor=none;gradientDirection=west;arcSize=32;" vertex="1" parent="lOCSN8-xL9tDfDZF2J6v-166">
          <mxGeometry x="41" y="9.5" width="5.5" height="5.5" as="geometry" />
        </mxCell>
        <mxCell id="lOCSN8-xL9tDfDZF2J6v-193" value="" style="rounded=1;whiteSpace=wrap;html=1;strokeColor=none;fillColor=#111111;strokeWidth=0.1;movable=1;resizable=1;rotatable=1;deletable=1;editable=1;locked=0;connectable=1;container=0;gradientColor=none;gradientDirection=west;arcSize=32;" vertex="1" parent="lOCSN8-xL9tDfDZF2J6v-166">
          <mxGeometry x="47.5" y="9.5" width="5.5" height="5.5" as="geometry" />
        </mxCell>
        <mxCell id="lOCSN8-xL9tDfDZF2J6v-194" value="" style="rounded=1;whiteSpace=wrap;html=1;strokeColor=none;fillColor=#111111;strokeWidth=0.1;movable=1;resizable=1;rotatable=1;deletable=1;editable=1;locked=0;connectable=1;container=0;gradientColor=none;gradientDirection=west;arcSize=32;" vertex="1" parent="lOCSN8-xL9tDfDZF2J6v-166">
          <mxGeometry x="54" y="9.5" width="5.5" height="5.5" as="geometry" />
        </mxCell>
        <mxCell id="lOCSN8-xL9tDfDZF2J6v-195" value="" style="rounded=1;whiteSpace=wrap;html=1;strokeColor=none;fillColor=#111111;strokeWidth=0.1;movable=1;resizable=1;rotatable=1;deletable=1;editable=1;locked=0;connectable=1;container=0;gradientColor=none;gradientDirection=west;arcSize=32;" vertex="1" parent="lOCSN8-xL9tDfDZF2J6v-166">
          <mxGeometry x="60.5" y="9.5" width="5.5" height="5.5" as="geometry" />
        </mxCell>
        <mxCell id="lOCSN8-xL9tDfDZF2J6v-196" value="" style="rounded=1;whiteSpace=wrap;html=1;strokeColor=none;fillColor=#111111;strokeWidth=0.1;movable=1;resizable=1;rotatable=1;deletable=1;editable=1;locked=0;connectable=1;container=0;gradientColor=none;gradientDirection=west;arcSize=32;" vertex="1" parent="lOCSN8-xL9tDfDZF2J6v-166">
          <mxGeometry x="67" y="9.5" width="5.5" height="5.5" as="geometry" />
        </mxCell>
        <mxCell id="lOCSN8-xL9tDfDZF2J6v-197" value="" style="rounded=1;whiteSpace=wrap;html=1;strokeColor=none;fillColor=#111111;strokeWidth=0.1;movable=1;resizable=1;rotatable=1;deletable=1;editable=1;locked=0;connectable=1;container=0;gradientColor=none;gradientDirection=west;arcSize=32;" vertex="1" parent="lOCSN8-xL9tDfDZF2J6v-166">
          <mxGeometry x="73.5" y="9.5" width="5.5" height="5.5" as="geometry" />
        </mxCell>
        <mxCell id="lOCSN8-xL9tDfDZF2J6v-198" value="" style="rounded=1;whiteSpace=wrap;html=1;strokeColor=none;fillColor=#111111;strokeWidth=0.1;movable=1;resizable=1;rotatable=1;deletable=1;editable=1;locked=0;connectable=1;container=0;gradientColor=none;gradientDirection=west;arcSize=32;" vertex="1" parent="lOCSN8-xL9tDfDZF2J6v-166">
          <mxGeometry x="80" y="9.5" width="5.5" height="5.5" as="geometry" />
        </mxCell>
        <mxCell id="lOCSN8-xL9tDfDZF2J6v-199" value="" style="rounded=1;whiteSpace=wrap;html=1;strokeColor=none;fillColor=#111111;strokeWidth=0.1;movable=1;resizable=1;rotatable=1;deletable=1;editable=1;locked=0;connectable=1;container=0;gradientColor=none;gradientDirection=west;arcSize=32;" vertex="1" parent="lOCSN8-xL9tDfDZF2J6v-166">
          <mxGeometry x="86.5" y="9.5" width="5.5" height="5.5" as="geometry" />
        </mxCell>
        <mxCell id="lOCSN8-xL9tDfDZF2J6v-200" value="" style="rounded=1;whiteSpace=wrap;html=1;strokeColor=none;fillColor=#111111;strokeWidth=0.1;movable=1;resizable=1;rotatable=1;deletable=1;editable=1;locked=0;connectable=1;container=0;gradientColor=none;gradientDirection=west;arcSize=32;" vertex="1" parent="lOCSN8-xL9tDfDZF2J6v-166">
          <mxGeometry x="93" y="9.5" width="5.5" height="5.5" as="geometry" />
        </mxCell>
        <mxCell id="lOCSN8-xL9tDfDZF2J6v-201" value="" style="rounded=1;whiteSpace=wrap;html=1;strokeColor=#111111;fillColor=#008a00;fontColor=#ffffff;container=0;arcSize=50;strokeWidth=0.3;" vertex="1" parent="lOCSN8-xL9tDfDZF2J6v-166">
          <mxGeometry x="104" y="5" width="4" height="4" as="geometry" />
        </mxCell>
        <mxCell id="lOCSN8-xL9tDfDZF2J6v-202" value="" style="rounded=1;whiteSpace=wrap;html=1;strokeColor=#111111;fillColor=#750000;fontColor=#ffffff;container=0;arcSize=50;strokeWidth=0.3;" vertex="1" parent="lOCSN8-xL9tDfDZF2J6v-166">
          <mxGeometry x="104" y="10" width="4" height="4" as="geometry" />
        </mxCell>
        <mxCell id="lOCSN8-xL9tDfDZF2J6v-203" value="" style="strokeWidth=0.1;html=1;shape=mxgraph.flowchart.database;whiteSpace=wrap;strokeColor=#010101;fillColor=none;movable=1;resizable=1;rotatable=1;deletable=1;editable=1;locked=0;connectable=1;container=0;" vertex="1" parent="lOCSN8-xL9tDfDZF2J6v-166">
          <mxGeometry x="100" y="5.5" width="3" height="3" as="geometry" />
        </mxCell>
        <mxCell id="lOCSN8-xL9tDfDZF2J6v-204" value="" style="strokeWidth=0.1;html=1;shape=mxgraph.flowchart.database;whiteSpace=wrap;strokeColor=#010101;fillColor=none;movable=1;resizable=1;rotatable=1;deletable=1;editable=1;locked=0;connectable=1;container=0;" vertex="1" parent="lOCSN8-xL9tDfDZF2J6v-166">
          <mxGeometry x="100" y="10.5" width="3" height="3" as="geometry" />
        </mxCell>
        <mxCell id="lOCSN8-xL9tDfDZF2J6v-205" value="" style="shape=mxgraph.sysml.x;strokeWidth=0.1;strokeColor=#010101;container=0;" vertex="1" parent="lOCSN8-xL9tDfDZF2J6v-166">
          <mxGeometry x="100" y="10.5" width="3" height="3" as="geometry" />
        </mxCell>
        <mxCell id="lOCSN8-xL9tDfDZF2J6v-206" value="" style="rounded=0;whiteSpace=wrap;html=1;strokeColor=none;fillColor=#111111;strokeWidth=0.1;movable=1;resizable=1;rotatable=1;deletable=1;editable=1;locked=0;connectable=1;container=0;gradientColor=none;gradientDirection=west;" vertex="1" parent="lOCSN8-xL9tDfDZF2J6v-166">
          <mxGeometry y="17" width="109" height="8" as="geometry" />
        </mxCell>
        <mxCell id="lOCSN8-xL9tDfDZF2J6v-207" value="" style="rounded=0;whiteSpace=wrap;html=1;strokeColor=none;fillColor=#333333;strokeWidth=1;movable=1;resizable=1;rotatable=1;deletable=1;editable=1;locked=0;connectable=1;container=0;gradientColor=#222222;gradientDirection=east;" vertex="1" parent="lOCSN8-xL9tDfDZF2J6v-166">
          <mxGeometry x="34" y="18" width="50" height="6" as="geometry" />
        </mxCell>
        <mxCell id="lOCSN8-xL9tDfDZF2J6v-208" value="" style="rounded=0;whiteSpace=wrap;html=1;strokeColor=none;fillColor=#333333;strokeWidth=1;movable=1;resizable=1;rotatable=1;deletable=1;editable=1;locked=0;connectable=1;container=0;gradientColor=#222222;gradientDirection=west;" vertex="1" parent="lOCSN8-xL9tDfDZF2J6v-166">
          <mxGeometry x="4" y="18" width="30" height="6" as="geometry" />
        </mxCell>
        <mxCell id="lOCSN8-xL9tDfDZF2J6v-209" value="" style="rounded=0;whiteSpace=wrap;html=1;strokeColor=#111111;fillColor=none;strokeWidth=0.1;movable=1;resizable=1;rotatable=1;deletable=1;editable=1;locked=0;connectable=1;container=0;gradientColor=none;gradientDirection=west;" vertex="1" parent="lOCSN8-xL9tDfDZF2J6v-166">
          <mxGeometry x="6" y="18.5" width="27" height="5" as="geometry" />
        </mxCell>
        <mxCell id="lOCSN8-xL9tDfDZF2J6v-210" value="" style="rounded=0;whiteSpace=wrap;html=1;strokeColor=#111111;fillColor=none;strokeWidth=0.1;movable=1;resizable=1;rotatable=1;deletable=1;editable=1;locked=0;connectable=1;container=0;gradientColor=#222222;gradientDirection=east;" vertex="1" parent="lOCSN8-xL9tDfDZF2J6v-166">
          <mxGeometry x="35" y="18.5" width="28" height="5" as="geometry" />
        </mxCell>
        <mxCell id="lOCSN8-xL9tDfDZF2J6v-211" value="" style="rounded=0;whiteSpace=wrap;html=1;strokeColor=none;fillColor=#570000;strokeWidth=1;movable=1;resizable=1;rotatable=1;deletable=1;editable=1;locked=0;connectable=1;container=0;gradientDirection=east;fontColor=#ffffff;gradientColor=#750000;" vertex="1" parent="lOCSN8-xL9tDfDZF2J6v-166">
          <mxGeometry x="84" y="18" width="14.5" height="6" as="geometry" />
        </mxCell>
        <mxCell id="lOCSN8-xL9tDfDZF2J6v-212" value="" style="shape=or;whiteSpace=wrap;html=1;rounded=0;strokeWidth=1;align=center;verticalAlign=middle;fontFamily=Helvetica;fontSize=12;fontColor=default;resizable=1;fillColor=#222222;gradientColor=none;gradientDirection=east;strokeColor=none;" vertex="1" parent="lOCSN8-xL9tDfDZF2J6v-166">
          <mxGeometry x="84" y="18" width="2" height="6" as="geometry" />
        </mxCell>
        <mxCell id="lOCSN8-xL9tDfDZF2J6v-214" value="" style="rounded=0;whiteSpace=wrap;html=1;strokeColor=none;fillColor=#000000;strokeWidth=1;movable=1;resizable=1;rotatable=1;deletable=1;editable=1;locked=0;connectable=1;container=0;" vertex="1" parent="lOCSN8-xL9tDfDZF2J6v-251">
          <mxGeometry x="352.3" y="0.5" width="12" height="12" as="geometry" />
        </mxCell>
        <mxCell id="lOCSN8-xL9tDfDZF2J6v-218" value="" style="rounded=0;whiteSpace=wrap;html=1;strokeColor=none;fillColor=#000000;strokeWidth=1;movable=1;resizable=1;rotatable=1;deletable=1;editable=1;locked=0;connectable=1;container=0;" vertex="1" parent="lOCSN8-xL9tDfDZF2J6v-251">
          <mxGeometry x="339.3" y="2.5" width="10" height="10" as="geometry" />
        </mxCell>
        <mxCell id="lOCSN8-xL9tDfDZF2J6v-221" value="" style="rounded=0;whiteSpace=wrap;html=1;strokeColor=none;fillColor=#000000;strokeWidth=1;movable=1;resizable=1;rotatable=1;deletable=1;editable=1;locked=0;connectable=1;container=0;" vertex="1" parent="lOCSN8-xL9tDfDZF2J6v-251">
          <mxGeometry x="365.3" y="0.5" width="12" height="12" as="geometry" />
        </mxCell>
        <mxCell id="lOCSN8-xL9tDfDZF2J6v-222" value="" style="rounded=0;whiteSpace=wrap;html=1;strokeColor=none;fillColor=#000000;strokeWidth=1;movable=1;resizable=1;rotatable=1;deletable=1;editable=1;locked=0;connectable=1;container=0;" vertex="1" parent="lOCSN8-xL9tDfDZF2J6v-251">
          <mxGeometry x="378.3" y="0.5" width="12" height="12" as="geometry" />
        </mxCell>
        <mxCell id="lOCSN8-xL9tDfDZF2J6v-223" value="" style="rounded=0;whiteSpace=wrap;html=1;strokeColor=none;fillColor=#000000;strokeWidth=1;movable=1;resizable=1;rotatable=1;deletable=1;editable=1;locked=0;connectable=1;container=0;" vertex="1" parent="lOCSN8-xL9tDfDZF2J6v-251">
          <mxGeometry x="391.3" y="0.5" width="5" height="12" as="geometry" />
        </mxCell>
        <mxCell id="lOCSN8-xL9tDfDZF2J6v-225" value="" style="rounded=0;whiteSpace=wrap;html=1;strokeColor=none;fillColor=#000000;strokeWidth=1;movable=1;resizable=1;rotatable=1;deletable=1;editable=1;locked=0;connectable=1;container=0;" vertex="1" parent="lOCSN8-xL9tDfDZF2J6v-251">
          <mxGeometry x="327.3" y="2.5" width="10" height="10" as="geometry" />
        </mxCell>
        <mxCell id="lOCSN8-xL9tDfDZF2J6v-226" value="" style="rounded=0;whiteSpace=wrap;html=1;strokeColor=none;fillColor=#000000;strokeWidth=1;movable=1;resizable=1;rotatable=1;deletable=1;editable=1;locked=0;connectable=1;container=0;" vertex="1" parent="lOCSN8-xL9tDfDZF2J6v-251">
          <mxGeometry x="315.3" y="2.5" width="10" height="10" as="geometry" />
        </mxCell>
        <mxCell id="lOCSN8-xL9tDfDZF2J6v-227" value="" style="rounded=0;whiteSpace=wrap;html=1;strokeColor=none;fillColor=#000000;strokeWidth=1;movable=1;resizable=1;rotatable=1;deletable=1;editable=1;locked=0;connectable=1;container=0;" vertex="1" parent="lOCSN8-xL9tDfDZF2J6v-251">
          <mxGeometry x="303.3" y="2.5" width="10" height="10" as="geometry" />
        </mxCell>
        <mxCell id="lOCSN8-xL9tDfDZF2J6v-228" value="" style="rounded=0;whiteSpace=wrap;html=1;strokeColor=none;fillColor=#000000;strokeWidth=1;movable=1;resizable=1;rotatable=1;deletable=1;editable=1;locked=0;connectable=1;container=0;" vertex="1" parent="lOCSN8-xL9tDfDZF2J6v-251">
          <mxGeometry x="291.3" y="2.5" width="10" height="10" as="geometry" />
        </mxCell>
        <mxCell id="lOCSN8-xL9tDfDZF2J6v-229" value="" style="rounded=0;whiteSpace=wrap;html=1;strokeColor=none;fillColor=#000000;strokeWidth=1;movable=1;resizable=1;rotatable=1;deletable=1;editable=1;locked=0;connectable=1;container=0;" vertex="1" parent="lOCSN8-xL9tDfDZF2J6v-251">
          <mxGeometry x="279.3" y="2.5" width="10" height="10" as="geometry" />
        </mxCell>
        <mxCell id="lOCSN8-xL9tDfDZF2J6v-230" value="" style="rounded=0;whiteSpace=wrap;html=1;strokeColor=none;fillColor=#000000;strokeWidth=1;movable=1;resizable=1;rotatable=1;deletable=1;editable=1;locked=0;connectable=1;container=0;" vertex="1" parent="lOCSN8-xL9tDfDZF2J6v-251">
          <mxGeometry x="267.3" y="2.5" width="10" height="10" as="geometry" />
        </mxCell>
        <mxCell id="lOCSN8-xL9tDfDZF2J6v-231" value="" style="rounded=0;whiteSpace=wrap;html=1;strokeColor=none;fillColor=#000000;strokeWidth=1;movable=1;resizable=1;rotatable=1;deletable=1;editable=1;locked=0;connectable=1;container=0;" vertex="1" parent="lOCSN8-xL9tDfDZF2J6v-251">
          <mxGeometry x="255.3" y="2.5" width="10" height="10" as="geometry" />
        </mxCell>
        <mxCell id="lOCSN8-xL9tDfDZF2J6v-233" value="" style="rounded=0;whiteSpace=wrap;html=1;strokeColor=none;fillColor=#000000;strokeWidth=1;movable=1;resizable=1;rotatable=1;deletable=1;editable=1;locked=0;connectable=1;container=0;" vertex="1" parent="lOCSN8-xL9tDfDZF2J6v-251">
          <mxGeometry x="243.3" y="0.5" width="8" height="12" as="geometry" />
        </mxCell>
        <mxCell id="lOCSN8-xL9tDfDZF2J6v-234" value="" style="rounded=0;whiteSpace=wrap;html=1;strokeColor=none;fillColor=#000000;strokeWidth=1;movable=1;resizable=1;rotatable=1;deletable=1;editable=1;locked=0;connectable=1;container=0;" vertex="1" parent="lOCSN8-xL9tDfDZF2J6v-251">
          <mxGeometry x="195.3" y="2.5" width="10" height="10" as="geometry" />
        </mxCell>
        <mxCell id="lOCSN8-xL9tDfDZF2J6v-235" value="" style="rounded=0;whiteSpace=wrap;html=1;strokeColor=none;fillColor=#000000;strokeWidth=1;movable=1;resizable=1;rotatable=1;deletable=1;editable=1;locked=0;connectable=1;container=0;" vertex="1" parent="lOCSN8-xL9tDfDZF2J6v-251">
          <mxGeometry x="183.3" y="2.5" width="10" height="10" as="geometry" />
        </mxCell>
        <mxCell id="lOCSN8-xL9tDfDZF2J6v-236" value="" style="rounded=0;whiteSpace=wrap;html=1;strokeColor=none;fillColor=#000000;strokeWidth=1;movable=1;resizable=1;rotatable=1;deletable=1;editable=1;locked=0;connectable=1;container=0;" vertex="1" parent="lOCSN8-xL9tDfDZF2J6v-251">
          <mxGeometry x="171.3" y="2.5" width="10" height="10" as="geometry" />
        </mxCell>
        <mxCell id="lOCSN8-xL9tDfDZF2J6v-237" value="" style="rounded=0;whiteSpace=wrap;html=1;strokeColor=none;fillColor=#000000;strokeWidth=1;movable=1;resizable=1;rotatable=1;deletable=1;editable=1;locked=0;connectable=1;container=0;" vertex="1" parent="lOCSN8-xL9tDfDZF2J6v-251">
          <mxGeometry x="159.3" y="2.5" width="10" height="10" as="geometry" />
        </mxCell>
        <mxCell id="lOCSN8-xL9tDfDZF2J6v-238" value="" style="rounded=0;whiteSpace=wrap;html=1;strokeColor=none;fillColor=#000000;strokeWidth=1;movable=1;resizable=1;rotatable=1;deletable=1;editable=1;locked=0;connectable=1;container=0;" vertex="1" parent="lOCSN8-xL9tDfDZF2J6v-251">
          <mxGeometry x="147.3" y="2.5" width="10" height="10" as="geometry" />
        </mxCell>
        <mxCell id="lOCSN8-xL9tDfDZF2J6v-239" value="" style="rounded=0;whiteSpace=wrap;html=1;strokeColor=none;fillColor=#000000;strokeWidth=1;movable=1;resizable=1;rotatable=1;deletable=1;editable=1;locked=0;connectable=1;container=0;" vertex="1" parent="lOCSN8-xL9tDfDZF2J6v-251">
          <mxGeometry x="135.3" y="2.5" width="10" height="10" as="geometry" />
        </mxCell>
        <mxCell id="lOCSN8-xL9tDfDZF2J6v-240" value="" style="rounded=0;whiteSpace=wrap;html=1;strokeColor=none;fillColor=#000000;strokeWidth=1;movable=1;resizable=1;rotatable=1;deletable=1;editable=1;locked=0;connectable=1;container=0;" vertex="1" parent="lOCSN8-xL9tDfDZF2J6v-251">
          <mxGeometry x="123.30000000000001" y="2.5" width="10" height="10" as="geometry" />
        </mxCell>
        <mxCell id="lOCSN8-xL9tDfDZF2J6v-241" value="" style="rounded=0;whiteSpace=wrap;html=1;strokeColor=none;fillColor=#000000;strokeWidth=1;movable=1;resizable=1;rotatable=1;deletable=1;editable=1;locked=0;connectable=1;container=0;" vertex="1" parent="lOCSN8-xL9tDfDZF2J6v-251">
          <mxGeometry x="111.30000000000001" y="2.5" width="10" height="10" as="geometry" />
        </mxCell>
        <mxCell id="lOCSN8-xL9tDfDZF2J6v-242" value="" style="rounded=0;whiteSpace=wrap;html=1;strokeColor=none;fillColor=#000000;strokeWidth=1;movable=1;resizable=1;rotatable=1;deletable=1;editable=1;locked=0;connectable=1;container=0;" vertex="1" parent="lOCSN8-xL9tDfDZF2J6v-251">
          <mxGeometry x="21.299999999999997" y="0.5" width="12" height="12" as="geometry" />
        </mxCell>
        <mxCell id="lOCSN8-xL9tDfDZF2J6v-243" value="" style="rounded=0;whiteSpace=wrap;html=1;strokeColor=none;fillColor=#000000;strokeWidth=1;movable=1;resizable=1;rotatable=1;deletable=1;editable=1;locked=0;connectable=1;container=0;" vertex="1" parent="lOCSN8-xL9tDfDZF2J6v-251">
          <mxGeometry x="97.3" y="0.5" width="12" height="12" as="geometry" />
        </mxCell>
        <mxCell id="lOCSN8-xL9tDfDZF2J6v-244" value="" style="rounded=0;whiteSpace=wrap;html=1;strokeColor=none;fillColor=#000000;strokeWidth=1;movable=1;resizable=1;rotatable=1;deletable=1;editable=1;locked=0;connectable=1;container=0;" vertex="1" parent="lOCSN8-xL9tDfDZF2J6v-251">
          <mxGeometry x="84.3" y="0.5" width="12" height="12" as="geometry" />
        </mxCell>
        <mxCell id="lOCSN8-xL9tDfDZF2J6v-245" value="" style="rounded=0;whiteSpace=wrap;html=1;strokeColor=none;fillColor=#000000;strokeWidth=1;movable=1;resizable=1;rotatable=1;deletable=1;editable=1;locked=0;connectable=1;container=0;" vertex="1" parent="lOCSN8-xL9tDfDZF2J6v-251">
          <mxGeometry x="34.30000000000001" y="6.5" width="10" height="6" as="geometry" />
        </mxCell>
        <mxCell id="lOCSN8-xL9tDfDZF2J6v-246" value="" style="rounded=0;whiteSpace=wrap;html=1;strokeColor=none;fillColor=#000000;strokeWidth=1;movable=1;resizable=1;rotatable=1;deletable=1;editable=1;locked=0;connectable=1;container=0;" vertex="1" parent="lOCSN8-xL9tDfDZF2J6v-251">
          <mxGeometry x="45.3" y="6.5" width="10" height="6" as="geometry" />
        </mxCell>
        <mxCell id="lOCSN8-xL9tDfDZF2J6v-247" value="" style="rounded=0;whiteSpace=wrap;html=1;strokeColor=none;fillColor=#000000;strokeWidth=1;movable=1;resizable=1;rotatable=1;deletable=1;editable=1;locked=0;connectable=1;container=0;" vertex="1" parent="lOCSN8-xL9tDfDZF2J6v-251">
          <mxGeometry x="56.30000000000001" y="6.5" width="10" height="6" as="geometry" />
        </mxCell>
        <mxCell id="lOCSN8-xL9tDfDZF2J6v-248" value="" style="rounded=0;whiteSpace=wrap;html=1;strokeColor=none;fillColor=#000000;strokeWidth=1;movable=1;resizable=1;rotatable=1;deletable=1;editable=1;locked=0;connectable=1;container=0;" vertex="1" parent="lOCSN8-xL9tDfDZF2J6v-251">
          <mxGeometry x="67.30000000000001" y="6.5" width="10" height="6" as="geometry" />
        </mxCell>
        <mxCell id="lOCSN8-xL9tDfDZF2J6v-249" value="" style="rounded=0;whiteSpace=wrap;html=1;strokeColor=none;fillColor=#000000;strokeWidth=1;movable=1;resizable=1;rotatable=1;deletable=1;editable=1;locked=0;connectable=1;container=0;" vertex="1" parent="lOCSN8-xL9tDfDZF2J6v-251">
          <mxGeometry x="78.30000000000001" y="7.5" width="5" height="5" as="geometry" />
        </mxCell>
        <mxCell id="lOCSN8-xL9tDfDZF2J6v-250" value="" style="rounded=0;whiteSpace=wrap;html=1;strokeColor=none;fillColor=#000000;strokeWidth=1;movable=1;resizable=1;rotatable=1;deletable=1;editable=1;locked=0;connectable=1;container=0;" vertex="1" parent="lOCSN8-xL9tDfDZF2J6v-251">
          <mxGeometry x="78.30000000000001" y="0.5" width="5" height="6" as="geometry" />
        </mxCell>
        <mxCell id="s0dWRtyi07ZF37cMcm2--303" value="" style="rounded=0;whiteSpace=wrap;html=1;strokeColor=none;fillColor=#000000;strokeWidth=1;movable=1;resizable=1;rotatable=1;deletable=1;editable=1;locked=0;connectable=1;container=0;" parent="lOCSN8-xL9tDfDZF2J6v-251" vertex="1">
          <mxGeometry x="46.3" y="0.5" width="20" height="5" as="geometry" />
        </mxCell>
        <mxCell id="s0dWRtyi07ZF37cMcm2--302" value="" style="rounded=0;whiteSpace=wrap;html=1;strokeColor=#000000;fillColor=#222222;strokeWidth=0.1;movable=1;resizable=1;rotatable=1;deletable=1;editable=1;locked=0;connectable=1;container=0;" parent="lOCSN8-xL9tDfDZF2J6v-251" vertex="1">
          <mxGeometry x="33.3" y="1.5" width="46" height="4" as="geometry" />
        </mxCell>
        <mxCell id="s0dWRtyi07ZF37cMcm2--304" value="" style="rounded=0;whiteSpace=wrap;html=1;strokeColor=#000000;fillColor=#333333;strokeWidth=0.1;movable=1;resizable=1;rotatable=1;deletable=1;editable=1;locked=0;connectable=1;container=0;" parent="lOCSN8-xL9tDfDZF2J6v-251" vertex="1">
          <mxGeometry x="41.3" y="1.5" width="30" height="4" as="geometry" />
        </mxCell>
        <mxCell id="s0dWRtyi07ZF37cMcm2--337" value="" style="rounded=0;whiteSpace=wrap;html=1;strokeColor=#000000;fillColor=#333333;strokeWidth=0.1;movable=1;resizable=1;rotatable=1;deletable=1;editable=1;locked=0;connectable=1;container=0;" parent="lOCSN8-xL9tDfDZF2J6v-251" vertex="1">
          <mxGeometry x="44.3" y="1.5" width="24" height="4" as="geometry" />
        </mxCell>
      </root>
    </mxGraphModel>
  </diagram>
</mxfile>
